<?xml version="1.0" encoding="UTF-8" standalone="no"?>
<!-- Created with matplotlib (http://matplotlib.org/) -->

<svg
   xmlns:dc="http://purl.org/dc/elements/1.1/"
   xmlns:cc="http://creativecommons.org/ns#"
   xmlns:rdf="http://www.w3.org/1999/02/22-rdf-syntax-ns#"
   xmlns:svg="http://www.w3.org/2000/svg"
   xmlns="http://www.w3.org/2000/svg"
   xmlns:xlink="http://www.w3.org/1999/xlink"
   xmlns:sodipodi="http://sodipodi.sourceforge.net/DTD/sodipodi-0.dtd"
   xmlns:inkscape="http://www.inkscape.org/namespaces/inkscape"
   height="299.31903pt"
   version="1.1"
   viewBox="0 0 456.16339 299.31903"
   width="456.16339pt"
   id="svg6186"
   inkscape:version="0.91 r13725"
   sodipodi:docname="impedance_plot.svg">
  <metadata
     id="metadata6550">
    <rdf:RDF>
      <cc:Work
         rdf:about="">
        <dc:format>image/svg+xml</dc:format>
        <dc:type
           rdf:resource="http://purl.org/dc/dcmitype/StillImage" />
        <dc:title></dc:title>
      </cc:Work>
    </rdf:RDF>
  </metadata>
  <sodipodi:namedview
     pagecolor="#ffffff"
     bordercolor="#666666"
     borderopacity="1"
     objecttolerance="10"
     gridtolerance="10"
     guidetolerance="10"
     inkscape:pageopacity="0"
     inkscape:pageshadow="2"
     inkscape:window-width="2495"
     inkscape:window-height="1416"
     id="namedview6548"
     showgrid="true"
     inkscape:zoom="1.7481481"
     inkscape:cx="79.733602"
     inkscape:cy="184.05586"
     inkscape:window-x="65"
     inkscape:window-y="24"
     inkscape:window-maximized="1"
     inkscape:current-layer="svg6186"
     inkscape:snap-text-baseline="true"
     inkscape:snap-midpoints="true"
     showguides="true"
     inkscape:object-nodes="true"
     fit-margin-left="-70"
     fit-margin-top="10"
     fit-margin-right="10"
     fit-margin-bottom="10"
     inkscape:showpageshadow="false">
    <inkscape:grid
       type="xygrid"
       id="grid6552"
       spacingx="0.8"
       spacingy="0.8"
       empspacing="5"
       originx="16.998047"
       originy="4.5191526" />
  </sodipodi:namedview>
  <defs
     id="defs6188"
     style="stroke-linecap:butt;stroke-linejoin:round">
    <style
       type="text/css"
       id="style6190">
*{stroke-linecap:butt;stroke-linejoin:round;}
  </style>
  </defs>
  <g
     id="figure_1"
     style="stroke-linecap:butt;stroke-linejoin:round"
     transform="translate(16.998047,6.7999878)">
    <path
       d="m 40.4096,255.285 388.7554,0 0,-250.08574 -388.7554,0 z"
       style="fill:#ffffff;stroke-linecap:butt;stroke-linejoin:round"
       id="path6198"
       inkscape:connector-curvature="0" />
    <g
       style="stroke-linecap:butt;stroke-linejoin:round"
       id="line2d_1">
      <path
         inkscape:connector-curvature="0"
         id="path6203"
         style="fill:none;stroke:#000000;stroke-width:0.5;stroke-linecap:butt;stroke-linejoin:round;stroke-dasharray:1, 3;stroke-dashoffset:0"
         d="m 295.822,255.285 0,-250.08574"
         clip-path="url(#p8643bcceb7)" />
    </g>
    <g
       style="stroke-linecap:butt;stroke-linejoin:round"
       id="line2d_2">
      <defs
         id="defs6206">
        <path
           inkscape:connector-curvature="0"
           style="stroke:#000000;stroke-width:0.5;stroke-linecap:butt;stroke-linejoin:round"
           id="m93b0483c22"
           d="M 0,0 0,-4" />
      </defs>
      <g
         style="stroke-linecap:butt;stroke-linejoin:round"
         id="g6209">
        <use
           height="100%"
           width="100%"
           id="use6211"
           y="255.28535"
           xlink:href="#m93b0483c22"
           x="295.82214"
           style="stroke:#000000;stroke-width:0.5;stroke-linecap:butt;stroke-linejoin:round" />
      </g>
    </g>
    <g
       style="stroke-linecap:butt;stroke-linejoin:round"
       id="line2d_3">
      <defs
         id="defs6214">
        <path
           inkscape:connector-curvature="0"
           style="stroke:#000000;stroke-width:0.5;stroke-linecap:butt;stroke-linejoin:round"
           id="m741efc42ff"
           d="M 0,0 0,4" />
      </defs>
      <g
         style="stroke-linecap:butt;stroke-linejoin:round"
         id="g6217">
        <use
           height="100%"
           width="100%"
           id="use6219"
           y="5.1992602"
           xlink:href="#m741efc42ff"
           x="295.82214"
           style="stroke:#000000;stroke-width:0.5;stroke-linecap:butt;stroke-linejoin:round" />
      </g>
    </g>
    <text
       sodipodi:linespacing="125%"
       id="text6752-4-8-2"
       y="266.39999"
       x="296"
       style="font-style:normal;font-variant:normal;font-weight:normal;font-stretch:normal;font-size:11px;line-height:125%;font-family:'Abyssinica SIL';-inkscape-font-specification:'Abyssinica SIL, Normal';text-align:center;letter-spacing:0px;word-spacing:0px;writing-mode:lr-tb;text-anchor:middle;fill:#000000;fill-opacity:1;stroke:none;stroke-width:1px;stroke-linecap:butt;stroke-linejoin:miter;stroke-opacity:1"
       xml:space="preserve"><tspan
         style="stroke-linecap:butt;stroke-linejoin:round"
         y="266.39999"
         x="296"
         id="tspan6916"
         sodipodi:role="line">$\omega_0$</tspan></text>
    <g
       style="stroke-linecap:butt;stroke-linejoin:round"
       id="line2d_4">
      <path
         inkscape:connector-curvature="0"
         id="path6246"
         style="fill:none;stroke:#000000;stroke-width:0.5;stroke-linecap:butt;stroke-linejoin:round;stroke-dasharray:1, 3;stroke-dashoffset:0"
         d="m 234.787,255.285 0,-250.08574"
         clip-path="url(#p8643bcceb7)" />
    </g>
    <g
       style="stroke-linecap:butt;stroke-linejoin:round"
       id="line2d_5">
      <g
         style="stroke-linecap:butt;stroke-linejoin:round"
         id="g6249">
        <use
           height="100%"
           width="100%"
           id="use6251"
           y="255.28535"
           xlink:href="#m93b0483c22"
           x="234.78751"
           style="stroke:#000000;stroke-width:0.5;stroke-linecap:butt;stroke-linejoin:round" />
      </g>
    </g>
    <g
       style="stroke-linecap:butt;stroke-linejoin:round"
       id="line2d_6">
      <g
         style="stroke-linecap:butt;stroke-linejoin:round"
         id="g6254">
        <use
           height="100%"
           width="100%"
           id="use6256"
           y="5.1992602"
           xlink:href="#m741efc42ff"
           x="234.78751"
           style="stroke:#000000;stroke-width:0.5;stroke-linecap:butt;stroke-linejoin:round" />
      </g>
    </g>
    <text
       sodipodi:linespacing="125%"
       id="text6752-4-8"
       y="266.39999"
       x="235.2"
       style="font-style:normal;font-variant:normal;font-weight:normal;font-stretch:normal;font-size:11px;line-height:125%;font-family:'Abyssinica SIL';-inkscape-font-specification:'Abyssinica SIL, Normal';text-align:center;letter-spacing:0px;word-spacing:0px;writing-mode:lr-tb;text-anchor:middle;fill:#000000;fill-opacity:1;stroke:none;stroke-width:1px;stroke-linecap:butt;stroke-linejoin:miter;stroke-opacity:1"
       xml:space="preserve"><tspan
         style="stroke-linecap:butt;stroke-linejoin:round"
         y="266.39999"
         x="235.2"
         id="tspan6884"
         sodipodi:role="line">$\omega_L$</tspan></text>
    <text
       xml:space="preserve"
       style="font-style:normal;font-variant:normal;font-weight:normal;font-stretch:normal;font-size:11px;line-height:125%;font-family:'Abyssinica SIL';-inkscape-font-specification:'Abyssinica SIL, Normal';text-align:center;letter-spacing:0px;word-spacing:0px;writing-mode:lr-tb;text-anchor:middle;fill:#000000;fill-opacity:1;stroke:none;stroke-width:1px;stroke-linecap:butt;stroke-linejoin:miter;stroke-opacity:1"
       id="xlabel_manual"
       sodipodi:linespacing="125%"
       y="280"
       x="236"><tspan
         sodipodi:role="line"
         id="tspan6682"
         style="stroke-linecap:butt;stroke-linejoin:round"
         x="236"
         y="280">Frequency ($MHz$)</tspan></text>
    <g
       style="stroke-linecap:butt;stroke-linejoin:round"
       id="line2d_7">
      <path
         inkscape:connector-curvature="0"
         id="path6325"
         style="fill:none;stroke:#000000;stroke-width:0.5;stroke-linecap:butt;stroke-linejoin:round;stroke-dasharray:1, 3;stroke-dashoffset:0"
         d="m 40.4096,138.782 388.7554,0"
         clip-path="url(#p8643bcceb7)" />
    </g>
    <g
       style="stroke-linecap:butt;stroke-linejoin:round"
       id="line2d_8">
      <defs
         id="defs6328">
        <path
           inkscape:connector-curvature="0"
           style="stroke:#000000;stroke-width:0.5;stroke-linecap:butt;stroke-linejoin:round"
           id="m728421d6d4"
           d="M 0,0 4,0" />
      </defs>
      <g
         style="stroke-linecap:butt;stroke-linejoin:round"
         id="g6331">
        <use
           height="100%"
           width="100%"
           id="use6333"
           y="138.78229"
           xlink:href="#m728421d6d4"
           x="40.409645"
           style="stroke:#000000;stroke-width:0.5;stroke-linecap:butt;stroke-linejoin:round" />
      </g>
    </g>
    <g
       style="stroke-linecap:butt;stroke-linejoin:round"
       id="line2d_9">
      <defs
         id="defs6336">
        <path
           inkscape:connector-curvature="0"
           style="stroke:#000000;stroke-width:0.5;stroke-linecap:butt;stroke-linejoin:round"
           id="mcb0005524f"
           d="M 0,0 -4,0" />
      </defs>
      <g
         style="stroke-linecap:butt;stroke-linejoin:round"
         id="g6339">
        <use
           height="100%"
           width="100%"
           id="use6341"
           y="138.78229"
           xlink:href="#mcb0005524f"
           x="429.16534"
           style="stroke:#000000;stroke-width:0.5;stroke-linecap:butt;stroke-linejoin:round" />
      </g>
    </g>
    <text
       sodipodi:linespacing="125%"
       id="text6752-5"
       y="140"
       x="36.000023"
       style="font-style:normal;font-variant:normal;font-weight:normal;font-stretch:normal;font-size:11px;line-height:125%;font-family:'Abyssinica SIL';-inkscape-font-specification:'Abyssinica SIL, Normal';text-align:end;letter-spacing:0px;word-spacing:0px;writing-mode:lr-tb;text-anchor:end;fill:#000000;fill-opacity:1;stroke:none;stroke-width:1px;stroke-linecap:butt;stroke-linejoin:miter;stroke-opacity:1"
       xml:space="preserve"><tspan
         y="140"
         x="36.000023"
         style="font-style:normal;font-variant:normal;font-weight:normal;font-stretch:normal;font-size:11px;line-height:125%;font-family:'Abyssinica SIL';-inkscape-font-specification:'Abyssinica SIL, Normal';text-align:end;writing-mode:lr-tb;text-anchor:end;stroke-linecap:butt;stroke-linejoin:round"
         id="tspan6754-8"
         sodipodi:role="line">$0$</tspan></text>
    <g
       style="stroke-linecap:butt;stroke-linejoin:round"
       id="line2d_10">
      <path
         inkscape:connector-curvature="0"
         id="path6353"
         style="fill:none;stroke:#000000;stroke-width:0.5;stroke-linecap:butt;stroke-linejoin:round;stroke-dasharray:1, 3;stroke-dashoffset:0"
         d="m 40.4096,109.742 388.7554,0"
         clip-path="url(#p8643bcceb7)" />
    </g>
    <g
       style="stroke-linecap:butt;stroke-linejoin:round"
       id="line2d_11">
      <g
         style="stroke-linecap:butt;stroke-linejoin:round"
         id="g6356">
        <use
           height="100%"
           width="100%"
           id="use6358"
           y="109.7425"
           xlink:href="#m728421d6d4"
           x="40.409645"
           style="stroke:#000000;stroke-width:0.5;stroke-linecap:butt;stroke-linejoin:round" />
      </g>
    </g>
    <g
       style="stroke-linecap:butt;stroke-linejoin:round"
       id="line2d_12">
      <g
         style="stroke-linecap:butt;stroke-linejoin:round"
         id="g6361">
        <use
           height="100%"
           width="100%"
           id="use6363"
           y="109.7425"
           xlink:href="#mcb0005524f"
           x="429.16534"
           style="stroke:#000000;stroke-width:0.5;stroke-linecap:butt;stroke-linejoin:round" />
      </g>
    </g>
    <text
       sodipodi:linespacing="125%"
       id="text6752"
       y="112"
       x="36"
       style="font-style:normal;font-variant:normal;font-weight:normal;font-stretch:normal;font-size:11px;line-height:125%;font-family:'Abyssinica SIL';-inkscape-font-specification:'Abyssinica SIL, Normal';text-align:end;letter-spacing:0px;word-spacing:0px;writing-mode:lr-tb;text-anchor:end;fill:#000000;fill-opacity:1;stroke:none;stroke-width:1px;stroke-linecap:butt;stroke-linejoin:miter;stroke-opacity:1"
       xml:space="preserve"><tspan
         sodipodi:role="line"
         id="tspan7247"
         x="36"
         y="112"
         style="stroke-linecap:butt;stroke-linejoin:round">$Z_{OPT}$</tspan></text>
    <g
       style="stroke-linecap:butt;stroke-linejoin:round"
       id="line2d_13">
      <path
         inkscape:connector-curvature="0"
         id="path6374"
         style="fill:none;stroke:#000000;stroke-width:0.5;stroke-linecap:butt;stroke-linejoin:round;stroke-dasharray:1, 3;stroke-dashoffset:0"
         d="m 40.4096,7.52244 388.7554,0"
         clip-path="url(#p8643bcceb7)" />
    </g>
    <g
       style="stroke-linecap:butt;stroke-linejoin:round"
       id="line2d_14">
      <g
         style="stroke-linecap:butt;stroke-linejoin:round"
         id="g6377">
        <use
           height="100%"
           width="100%"
           id="use6379"
           y="7.5224433"
           xlink:href="#m728421d6d4"
           x="40.409645"
           style="stroke:#000000;stroke-width:0.5;stroke-linecap:butt;stroke-linejoin:round" />
      </g>
    </g>
    <g
       style="stroke-linecap:butt;stroke-linejoin:round"
       id="line2d_15">
      <g
         style="stroke-linecap:butt;stroke-linejoin:round"
         id="g6382">
        <use
           height="100%"
           width="100%"
           id="use6384"
           y="7.5224433"
           xlink:href="#mcb0005524f"
           x="429.16534"
           style="stroke:#000000;stroke-width:0.5;stroke-linecap:butt;stroke-linejoin:round" />
      </g>
    </g>
    <text
       sodipodi:linespacing="125%"
       id="text6752-0"
       y="12"
       x="36"
       style="font-style:normal;font-variant:normal;font-weight:normal;font-stretch:normal;font-size:11px;line-height:125%;font-family:'Abyssinica SIL';-inkscape-font-specification:'Abyssinica SIL, Normal';text-align:end;letter-spacing:0px;word-spacing:0px;writing-mode:lr-tb;text-anchor:end;fill:#000000;fill-opacity:1;stroke:none;stroke-width:1px;stroke-linecap:butt;stroke-linejoin:miter;stroke-opacity:1"
       xml:space="preserve"><tspan
         sodipodi:role="line"
         id="tspan7249"
         x="36"
         y="12"
         style="stroke-linecap:butt;stroke-linejoin:round">$\alpha \cdot Z_{OPT}$</tspan></text>
    <text
       xml:space="preserve"
       style="font-style:normal;font-variant:normal;font-weight:normal;font-stretch:normal;font-size:11px;line-height:125%;font-family:'Abyssinica SIL';-inkscape-font-specification:'Abyssinica SIL, Normal';text-align:center;letter-spacing:0px;word-spacing:0px;writing-mode:lr-tb;text-anchor:middle;fill:#000000;fill-opacity:1;stroke:none;stroke-width:1px;stroke-linecap:butt;stroke-linejoin:miter;stroke-opacity:1"
       x="-128"
       y="-4"
       id="text6730"
       sodipodi:linespacing="125%"
       transform="matrix(0,-1,1,0,0,0)"><tspan
         sodipodi:role="line"
         id="tspan6732"
         style="font-style:normal;font-variant:normal;font-weight:normal;font-stretch:normal;font-size:11px;line-height:125%;font-family:'Abyssinica SIL';-inkscape-font-specification:'Abyssinica SIL, Normal';text-align:center;writing-mode:lr-tb;text-anchor:middle;stroke-linecap:butt;stroke-linejoin:round"
         x="-128"
         y="-4">Impedance (Ohms)</tspan></text>
    <g
       style="stroke-linecap:butt;stroke-linejoin:round"
       id="line2d_16">
      <path
         inkscape:connector-curvature="0"
         id="path6444"
         style="fill:none;stroke:#009afa;stroke-linecap:round;stroke-linejoin:round"
         d="m 40.4096,136.365 3.9269,-0.067 3.9268,-0.069 3.9268,-0.073 3.9268,-0.076 3.9269,-0.08 3.9268,-0.083 3.9268,-0.088 3.9268,-0.092 3.9269,-0.097 3.9268,-0.102 3.9268,-0.107 3.9268,-0.114 3.9269,-0.119 3.9268,-0.126 3.9268,-0.133 3.927,-0.141 3.927,-0.15 3.927,-0.158 3.926,-0.169 3.927,-0.179 3.927,-0.19 3.927,-0.203 3.927,-0.217 3.926,-0.232 3.927,-0.248 3.927,-0.266 3.927,-0.286 3.927,-0.307 3.927,-0.331 3.926,-0.358 3.927,-0.387 3.927,-0.419 3.927,-0.456 3.927,-0.496 3.927,-0.542 3.926,-0.592 3.927,-0.65 3.927,-0.714 3.927,-0.788 3.927,-0.871 3.926,-0.966 3.927,-1.076 3.927,-1.201 3.927,-1.345 3.927,-1.514 3.927,-1.708 3.926,-1.934 3.927,-2.201 3.927,-2.512 3.927,-2.878 3.927,-3.309 3.927,-3.815 3.926,-4.4082 3.927,-5.099 3.927,-5.8934 3.927,-6.7884 3.927,-7.7624 3.927,-8.7618 3.926,-9.6813 3.927,-10.3456 3.927,-10.5006 3.927,-9.8413 3.927,-8.1033 3.926,-5.21477 3.927,-1.43836 3.927,2.62986 3.927,6.26797 3.927,8.9264 3.927,10.4068 3.926,10.8323 3.927,10.493 3.927,9.6976 3.927,8.6922 3.927,7.6414 3.927,6.6395 3.926,5.7321 3.927,4.9353 3.927,4.247 3.927,3.661 3.927,3.163 3.926,2.741 3.927,2.384 3.927,2.081 3.927,1.824 3.927,1.605 3.927,1.417 3.926,1.256 3.927,1.117 3.927,0.998 3.927,0.894 3.927,0.803 3.927,0.723 3.926,0.655 3.927,0.593 3.927,0.539 3.927,0.492 3.927,0.449 3.927,0.411 3.926,0.377"
         clip-path="url(#p8643bcceb7)" />
    </g>
    <g
       style="stroke-linecap:butt;stroke-linejoin:round"
       id="line2d_17">
      <path
         inkscape:connector-curvature="0"
         id="path6447"
         style="fill:none;stroke:#e36f47;stroke-linecap:round;stroke-linejoin:round"
         d="m 40.4096,185.877 3.9269,-0.481 3.9268,-0.486 3.9268,-0.492 3.9268,-0.498 3.9269,-0.505 3.9268,-0.511 3.9268,-0.519 3.9268,-0.526 3.9269,-0.535 3.9268,-0.544 3.9268,-0.553 3.9268,-0.562 3.9269,-0.574 3.9268,-0.584 3.9268,-0.596 3.927,-0.609 3.927,-0.623 3.927,-0.636 3.926,-0.652 3.927,-0.669 3.927,-0.685 3.927,-0.704 3.927,-0.723 3.926,-0.745 3.927,-0.766 3.927,-0.791 3.927,-0.816 3.927,-0.844 3.927,-0.873 3.926,-0.904 3.927,-0.938 3.927,-0.973 3.927,-1.012 3.927,-1.054 3.927,-1.098 3.926,-1.145 3.927,-1.196 3.927,-1.251 3.927,-1.309 3.927,-1.372 3.926,-1.438 3.927,-1.508 3.927,-1.582 3.927,-1.661 3.927,-1.741 3.927,-1.823 3.926,-1.904 3.927,-1.983 3.927,-2.052 3.927,-2.108 3.927,-2.139 3.927,-2.13 3.926,-2.061 3.927,-1.902 3.927,-1.615 3.927,-1.14 3.927,-0.407 3.927,0.669 3.926,2.181 3.927,4.198 3.927,6.718 3.927,9.596 3.927,12.491 3.926,14.87 3.927,16.155 3.927,15.983 3.927,14.39 3.927,11.803 3.927,8.813 3.926,5.934 3.927,3.476 3.927,1.548 3.927,0.131 3.927,-0.855 3.927,-1.509 3.926,-1.916 3.927,-2.149 3.927,-2.261 3.927,-2.291 3.927,-2.269 3.926,-2.212 3.927,-2.136 3.927,-2.048 3.927,-1.954 3.927,-1.859 3.927,-1.766 3.926,-1.675 3.927,-1.589 3.927,-1.508 3.927,-1.429 3.927,-1.358 3.927,-1.289 3.926,-1.226 3.927,-1.166 3.927,-1.111 3.927,-1.06 3.927,-1.011 3.927,-0.966 3.926,-0.925"
         clip-path="url(#p8643bcceb7)" />
    </g>
    <path
       clip-path="url(#p8643bcceb7)"
       d="m 40.4096,159.457 3.9269,-0.46 3.9268,-0.459 3.9268,-0.456 3.9268,-0.455 3.9269,-0.452 3.9268,-0.451 3.9268,-0.448 3.9268,-0.446 3.9269,-0.445 3.9268,-0.443 3.9268,-0.44 3.9268,-0.439 3.9269,-0.437 3.9268,-0.435 3.9268,-0.434 3.927,-0.431 3.927,-0.43 3.927,-0.428 3.926,-0.426 3.927,-0.425 3.927,-0.423 3.927,-0.421 3.927,-0.42 3.926,-0.418 3.927,-0.416 3.927,-0.415 3.927,-0.413 3.927,-0.411 3.927,-0.41 3.926,-0.409 3.927,-0.407 3.927,-0.405 3.927,-0.404 3.927,-0.402 3.927,-0.401 3.926,-0.4 3.927,-0.398 3.927,-0.397 3.927,-0.395 3.927,-0.394 3.926,-0.393 3.927,-0.391 3.927,-0.39 3.927,-0.388 3.927,-0.387 3.927,-0.386 3.926,-0.385 3.927,-0.383 3.927,-0.382 3.927,-0.381 3.927,-0.38 3.927,-0.378 3.926,-0.377 3.927,-0.376 3.927,-0.375 3.927,-0.373 3.927,-0.372 3.927,-0.372 3.926,-0.37 3.927,-0.369 3.927,-0.367 3.927,-0.367 3.927,-0.366 3.926,-0.364 3.927,-0.363 3.927,-0.363 3.927,-0.361 3.927,-0.36 3.927,-0.359 3.926,-0.358 3.927,-0.357 3.927,-0.356 3.927,-0.355 3.927,-0.354 3.927,-0.353 3.926,-0.352 3.927,-0.352 3.927,-0.35 3.927,-0.349 3.927,-0.348 3.926,-0.347 3.927,-0.347 3.927,-0.345 3.927,-0.345 3.927,-0.343 3.927,-0.343 3.926,-0.342 3.927,-0.341 3.927,-0.34 3.927,-0.339 3.927,-0.338 3.927,-0.338 3.926,-0.337 3.927,-0.335 3.927,-0.335 3.927,-0.335 3.927,-0.333 3.927,-0.332 3.926,-0.332"
       style="fill:none;stroke:#3ea44e;stroke-linecap:round;stroke-linejoin:round"
       id="path6462"
       inkscape:connector-curvature="0" />
    <path
       inkscape:connector-curvature="0"
       id="path6466"
       style="fill:#ffffff;stroke:#000000;stroke-linecap:butt;stroke-linejoin:round"
       d="m 50.4,58.4 149.6,0 0,-44 -149.6,0 z"
       sodipodi:nodetypes="ccccc" />
    <g
       id="line2d_19"
       transform="translate(3.7904,4.1023)"
       style="stroke-linecap:butt;stroke-linejoin:round">
      <path
         d="m 52.4096,18.2977 14,0"
         style="fill:none;stroke:#009afa;stroke-linecap:round;stroke-linejoin:round"
         id="path6469"
         inkscape:connector-curvature="0" />
    </g>
    <g
       id="line2d_20"
       style="stroke-linecap:butt;stroke-linejoin:round" />
    <g
       id="line2d_21"
       transform="translate(3.7904,3.0242)"
       style="stroke-linecap:butt;stroke-linejoin:round">
      <path
         d="m 52.4096,32.9758 14,0"
         style="fill:none;stroke:#e36f47;stroke-linecap:round;stroke-linejoin:round"
         id="path6487"
         inkscape:connector-curvature="0" />
    </g>
    <g
       id="line2d_22"
       style="stroke-linecap:butt;stroke-linejoin:round" />
    <g
       id="line2d_23"
       transform="translate(3.7904,1.9461)"
       style="stroke-linecap:butt;stroke-linejoin:round">
      <path
         d="m 52.4096,47.6539 14,0"
         style="fill:none;stroke:#3ea44e;stroke-linecap:round;stroke-linejoin:round"
         id="path6503"
         inkscape:connector-curvature="0" />
    </g>
    <g
       id="line2d_24"
       style="stroke-linecap:butt;stroke-linejoin:round" />
    <text
       xml:space="preserve"
       style="font-style:normal;font-variant:normal;font-weight:normal;font-stretch:normal;font-size:11px;line-height:125%;font-family:'Abyssinica SIL';-inkscape-font-specification:'Abyssinica SIL, Normal';text-align:start;letter-spacing:0px;word-spacing:0px;writing-mode:lr-tb;text-anchor:start;fill:#000000;fill-opacity:1;stroke:none;stroke-width:1px;stroke-linecap:butt;stroke-linejoin:miter;stroke-opacity:1"
       x="75.199997"
       y="26.400002"
       id="text6752-4"
       sodipodi:linespacing="125%"><tspan
         sodipodi:role="line"
         id="tspan6816"
         x="75.199997"
         y="26.400002"
         style="stroke-linecap:butt;stroke-linejoin:round">$R_{IN}$</tspan></text>
    <text
       xml:space="preserve"
       style="font-style:normal;font-variant:normal;font-weight:normal;font-stretch:normal;font-size:11px;line-height:125%;font-family:'Abyssinica SIL';-inkscape-font-specification:'Abyssinica SIL, Normal';text-align:start;letter-spacing:0px;word-spacing:0px;writing-mode:lr-tb;text-anchor:start;fill:#000000;fill-opacity:1;stroke:none;stroke-width:1px;stroke-linecap:butt;stroke-linejoin:miter;stroke-opacity:1"
       x="75.199997"
       y="39.999992"
       id="text6752-4-1"
       sodipodi:linespacing="125%"><tspan
         sodipodi:role="line"
         id="tspan6844"
         x="75.199997"
         y="39.999992"
         style="stroke-linecap:butt;stroke-linejoin:round">$X_{IN}$</tspan></text>
    <text
       xml:space="preserve"
       style="font-style:normal;font-variant:normal;font-weight:normal;font-stretch:normal;font-size:11px;line-height:125%;font-family:'Abyssinica SIL';-inkscape-font-specification:'Abyssinica SIL, Normal';text-align:start;letter-spacing:0px;word-spacing:0px;writing-mode:lr-tb;text-anchor:start;fill:#000000;fill-opacity:1;stroke:none;stroke-width:1px;stroke-linecap:butt;stroke-linejoin:miter;stroke-opacity:1"
       x="75.199997"
       y="53.599991"
       id="text6752-4-6"
       sodipodi:linespacing="125%"><tspan
         sodipodi:role="line"
         id="tspan6854"
         x="75.199997"
         y="53.599991"
         style="stroke-linecap:butt;stroke-linejoin:round">$X_P+X_M+{X_{PREAMP}}'$</tspan></text>
    <rect
       style="fill:none;stroke:#000000;stroke-width:1.60000002;stroke-linecap:round;stroke-linejoin:round;stroke-miterlimit:4;stroke-dasharray:none;stroke-opacity:1"
       id="rect7226"
       width="388"
       height="252"
       x="40"
       y="4" />
  </g>
  <defs
     id="defs6543">
    <clipPath
       id="p8643bcceb7"
       style="stroke-linecap:butt;stroke-linejoin:round">
      <rect
         height="250.08609"
         width="388.75571"
         x="40.409645"
         y="5.1992602"
         id="rect6546"
         style="stroke-linecap:butt;stroke-linejoin:round" />
    </clipPath>
  </defs>
</svg>
