<?xml version="1.0" encoding="utf-8" standalone="no"?>
<!DOCTYPE svg PUBLIC "-//W3C//DTD SVG 1.1//EN"
  "http://www.w3.org/Graphics/SVG/1.1/DTD/svg11.dtd">
<!-- Created with matplotlib (http://matplotlib.org/) -->
<svg height="288pt" version="1.1" viewBox="0 0 432 288" width="432pt" xmlns="http://www.w3.org/2000/svg" xmlns:xlink="http://www.w3.org/1999/xlink">
 <defs>
  <style type="text/css">
*{stroke-linecap:butt;stroke-linejoin:round;}
  </style>
 </defs>
 <g id="figure_1">
  <g id="patch_1">
   <path d="
M0 288
L432 288
L432 0
L0 0
z
" style="fill:#ffffff;"/>
  </g>
  <g id="axes_1">
   <g id="patch_2">
    <path d="
M40.4096 255.285
L429.165 255.285
L429.165 5.19926
L40.4096 5.19926
z
" style="fill:#ffffff;"/>
   </g>
   <g id="matplotlib.axis_1">
    <g id="xtick_1">
     <g id="line2d_1">
      <path clip-path="url(#p8643bcceb7)" d="
M295.822 255.285
L295.822 5.19926" style="fill:none;stroke:#000000;stroke-dasharray:1.000000,3.000000;stroke-dashoffset:0.0;stroke-width:0.5;"/>
     </g>
     <g id="line2d_2">
      <defs>
       <path d="
M0 0
L0 -4" id="m93b0483c22" style="stroke:#000000;stroke-width:0.5;"/>
      </defs>
      <g>
       <use style="stroke:#000000;stroke-width:0.5;" x="295.82214626" xlink:href="#m93b0483c22" y="255.285354331"/>
      </g>
     </g>
     <g id="line2d_3">
      <defs>
       <path d="
M0 0
L0 4" id="m741efc42ff" style="stroke:#000000;stroke-width:0.5;"/>
      </defs>
      <g>
       <use style="stroke:#000000;stroke-width:0.5;" x="295.82214626" xlink:href="#m741efc42ff" y="5.19926014177"/>
      </g>
     </g>
     <g id="text_1">
      <!-- 129.53 -->
      <defs>
       <path d="
M10.6875 12.4062
L21 12.4062
L21 0
L10.6875 0
z
" id="DejaVuSans-2e"/>
       <path d="
M12.4062 8.29688
L28.5156 8.29688
L28.5156 63.9219
L10.9844 60.4062
L10.9844 69.3906
L28.4219 72.9062
L38.2812 72.9062
L38.2812 8.29688
L54.3906 8.29688
L54.3906 0
L12.4062 0
z
" id="DejaVuSans-31"/>
       <path d="
M40.5781 39.3125
Q47.6562 37.7969 51.625 33
Q55.6094 28.2188 55.6094 21.1875
Q55.6094 10.4062 48.1875 4.48438
Q40.7656 -1.42188 27.0938 -1.42188
Q22.5156 -1.42188 17.6562 -0.515625
Q12.7969 0.390625 7.625 2.20312
L7.625 11.7188
Q11.7188 9.32812 16.5938 8.10938
Q21.4844 6.89062 26.8125 6.89062
Q36.0781 6.89062 40.9375 10.5469
Q45.7969 14.2031 45.7969 21.1875
Q45.7969 27.6406 41.2812 31.2656
Q36.7656 34.9062 28.7188 34.9062
L20.2188 34.9062
L20.2188 43.0156
L29.1094 43.0156
Q36.375 43.0156 40.2344 45.9219
Q44.0938 48.8281 44.0938 54.2969
Q44.0938 59.9062 40.1094 62.9062
Q36.1406 65.9219 28.7188 65.9219
Q24.6562 65.9219 20.0156 65.0312
Q15.375 64.1562 9.8125 62.3125
L9.8125 71.0938
Q15.4375 72.6562 20.3438 73.4375
Q25.25 74.2188 29.5938 74.2188
Q40.8281 74.2188 47.3594 69.1094
Q53.9062 64.0156 53.9062 55.3281
Q53.9062 49.2656 50.4375 45.0938
Q46.9688 40.9219 40.5781 39.3125" id="DejaVuSans-33"/>
       <path d="
M19.1875 8.29688
L53.6094 8.29688
L53.6094 0
L7.32812 0
L7.32812 8.29688
Q12.9375 14.1094 22.625 23.8906
Q32.3281 33.6875 34.8125 36.5312
Q39.5469 41.8438 41.4219 45.5312
Q43.3125 49.2188 43.3125 52.7812
Q43.3125 58.5938 39.2344 62.25
Q35.1562 65.9219 28.6094 65.9219
Q23.9688 65.9219 18.8125 64.3125
Q13.6719 62.7031 7.8125 59.4219
L7.8125 69.3906
Q13.7656 71.7812 18.9375 73
Q24.125 74.2188 28.4219 74.2188
Q39.75 74.2188 46.4844 68.5469
Q53.2188 62.8906 53.2188 53.4219
Q53.2188 48.9219 51.5312 44.8906
Q49.8594 40.875 45.4062 35.4062
Q44.1875 33.9844 37.6406 27.2188
Q31.1094 20.4531 19.1875 8.29688" id="DejaVuSans-32"/>
       <path d="
M10.7969 72.9062
L49.5156 72.9062
L49.5156 64.5938
L19.8281 64.5938
L19.8281 46.7344
Q21.9688 47.4688 24.1094 47.8281
Q26.2656 48.1875 28.4219 48.1875
Q40.625 48.1875 47.75 41.5
Q54.8906 34.8125 54.8906 23.3906
Q54.8906 11.625 47.5625 5.09375
Q40.2344 -1.42188 26.9062 -1.42188
Q22.3125 -1.42188 17.5469 -0.640625
Q12.7969 0.140625 7.71875 1.70312
L7.71875 11.625
Q12.1094 9.23438 16.7969 8.0625
Q21.4844 6.89062 26.7031 6.89062
Q35.1562 6.89062 40.0781 11.3281
Q45.0156 15.7656 45.0156 23.3906
Q45.0156 31 40.0781 35.4375
Q35.1562 39.8906 26.7031 39.8906
Q22.75 39.8906 18.8125 39.0156
Q14.8906 38.1406 10.7969 36.2812
z
" id="DejaVuSans-35"/>
       <path d="
M10.9844 1.51562
L10.9844 10.5
Q14.7031 8.73438 18.5 7.8125
Q22.3125 6.89062 25.9844 6.89062
Q35.75 6.89062 40.8906 13.4531
Q46.0469 20.0156 46.7812 33.4062
Q43.9531 29.2031 39.5938 26.9531
Q35.25 24.7031 29.9844 24.7031
Q19.0469 24.7031 12.6719 31.3125
Q6.29688 37.9375 6.29688 49.4219
Q6.29688 60.6406 12.9375 67.4219
Q19.5781 74.2188 30.6094 74.2188
Q43.2656 74.2188 49.9219 64.5156
Q56.5938 54.8281 56.5938 36.375
Q56.5938 19.1406 48.4062 8.85938
Q40.2344 -1.42188 26.4219 -1.42188
Q22.7031 -1.42188 18.8906 -0.6875
Q15.0938 0.046875 10.9844 1.51562
M30.6094 32.4219
Q37.25 32.4219 41.125 36.9531
Q45.0156 41.5 45.0156 49.4219
Q45.0156 57.2812 41.125 61.8438
Q37.25 66.4062 30.6094 66.4062
Q23.9688 66.4062 20.0938 61.8438
Q16.2188 57.2812 16.2188 49.4219
Q16.2188 41.5 20.0938 36.9531
Q23.9688 32.4219 30.6094 32.4219" id="DejaVuSans-39"/>
      </defs>
      <g transform="translate(279.27683376 266.883791831)scale(0.1 -0.1)">
       <use xlink:href="#DejaVuSans-31"/>
       <use x="63.623046875" xlink:href="#DejaVuSans-32"/>
       <use x="127.24609375" xlink:href="#DejaVuSans-39"/>
       <use x="190.869140625" xlink:href="#DejaVuSans-2e"/>
       <use x="222.65625" xlink:href="#DejaVuSans-35"/>
       <use x="286.279296875" xlink:href="#DejaVuSans-33"/>
      </g>
     </g>
    </g>
    <g id="xtick_2">
     <g id="line2d_4">
      <path clip-path="url(#p8643bcceb7)" d="
M234.787 255.285
L234.787 5.19926" style="fill:none;stroke:#000000;stroke-dasharray:1.000000,3.000000;stroke-dashoffset:0.0;stroke-width:0.5;"/>
     </g>
     <g id="line2d_5">
      <g>
       <use style="stroke:#000000;stroke-width:0.5;" x="234.7875" xlink:href="#m93b0483c22" y="255.285354331"/>
      </g>
     </g>
     <g id="line2d_6">
      <g>
       <use style="stroke:#000000;stroke-width:0.5;" x="234.7875" xlink:href="#m741efc42ff" y="5.19926014177"/>
      </g>
     </g>
     <g id="text_2">
      <!-- 123.25 -->
      <g transform="translate(218.278125 266.883791831)scale(0.1 -0.1)">
       <use xlink:href="#DejaVuSans-31"/>
       <use x="63.623046875" xlink:href="#DejaVuSans-32"/>
       <use x="127.24609375" xlink:href="#DejaVuSans-33"/>
       <use x="190.869140625" xlink:href="#DejaVuSans-2e"/>
       <use x="222.65625" xlink:href="#DejaVuSans-32"/>
       <use x="286.279296875" xlink:href="#DejaVuSans-35"/>
      </g>
     </g>
    </g>
    <g id="text_3">
     <!-- Frequency (MHz) -->
     <defs>
      <path d="
M9.8125 72.9062
L24.5156 72.9062
L43.1094 23.2969
L61.8125 72.9062
L76.5156 72.9062
L76.5156 0
L66.8906 0
L66.8906 64.0156
L48.0938 14.0156
L38.1875 14.0156
L19.3906 64.0156
L19.3906 0
L9.8125 0
z
" id="DejaVuSans-4d"/>
      <path d="
M8.01562 75.875
L15.8281 75.875
Q23.1406 64.3594 26.7812 53.3125
Q30.4219 42.2812 30.4219 31.3906
Q30.4219 20.4531 26.7812 9.375
Q23.1406 -1.70312 15.8281 -13.1875
L8.01562 -13.1875
Q14.5 -2 17.7031 9.0625
Q20.9062 20.125 20.9062 31.3906
Q20.9062 42.6719 17.7031 53.6562
Q14.5 64.6562 8.01562 75.875" id="DejaVuSans-29"/>
      <path d="
M9.8125 72.9062
L19.6719 72.9062
L19.6719 43.0156
L55.5156 43.0156
L55.5156 72.9062
L65.375 72.9062
L65.375 0
L55.5156 0
L55.5156 34.7188
L19.6719 34.7188
L19.6719 0
L9.8125 0
z
" id="DejaVuSans-48"/>
      <path d="
M54.8906 33.0156
L54.8906 0
L45.9062 0
L45.9062 32.7188
Q45.9062 40.4844 42.875 44.3281
Q39.8438 48.1875 33.7969 48.1875
Q26.5156 48.1875 22.3125 43.5469
Q18.1094 38.9219 18.1094 30.9062
L18.1094 0
L9.07812 0
L9.07812 54.6875
L18.1094 54.6875
L18.1094 46.1875
Q21.3438 51.125 25.7031 53.5625
Q30.0781 56 35.7969 56
Q45.2188 56 50.0469 50.1719
Q54.8906 44.3438 54.8906 33.0156" id="DejaVuSans-6e"/>
      <path d="
M5.51562 54.6875
L48.1875 54.6875
L48.1875 46.4844
L14.4062 7.17188
L48.1875 7.17188
L48.1875 0
L4.29688 0
L4.29688 8.20312
L38.0938 47.5156
L5.51562 47.5156
z
" id="DejaVuSans-7a"/>
      <path id="DejaVuSans-20"/>
      <path d="
M9.8125 72.9062
L51.7031 72.9062
L51.7031 64.5938
L19.6719 64.5938
L19.6719 43.1094
L48.5781 43.1094
L48.5781 34.8125
L19.6719 34.8125
L19.6719 0
L9.8125 0
z
" id="DejaVuSans-46"/>
      <path d="
M32.1719 -5.07812
Q28.375 -14.8438 24.75 -17.8125
Q21.1406 -20.7969 15.0938 -20.7969
L7.90625 -20.7969
L7.90625 -13.2812
L13.1875 -13.2812
Q16.8906 -13.2812 18.9375 -11.5156
Q21 -9.76562 23.4844 -3.21875
L25.0938 0.875
L2.98438 54.6875
L12.5 54.6875
L29.5938 11.9219
L46.6875 54.6875
L56.2031 54.6875
z
" id="DejaVuSans-79"/>
      <path d="
M8.5 21.5781
L8.5 54.6875
L17.4844 54.6875
L17.4844 21.9219
Q17.4844 14.1562 20.5 10.2656
Q23.5312 6.39062 29.5938 6.39062
Q36.8594 6.39062 41.0781 11.0312
Q45.3125 15.6719 45.3125 23.6875
L45.3125 54.6875
L54.2969 54.6875
L54.2969 0
L45.3125 0
L45.3125 8.40625
Q42.0469 3.42188 37.7188 1
Q33.4062 -1.42188 27.6875 -1.42188
Q18.2656 -1.42188 13.375 4.4375
Q8.5 10.2969 8.5 21.5781
M31.1094 56
z
" id="DejaVuSans-75"/>
      <path d="
M31 75.875
Q24.4688 64.6562 21.2812 53.6562
Q18.1094 42.6719 18.1094 31.3906
Q18.1094 20.125 21.3125 9.0625
Q24.5156 -2 31 -13.1875
L23.1875 -13.1875
Q15.875 -1.70312 12.2344 9.375
Q8.59375 20.4531 8.59375 31.3906
Q8.59375 42.2812 12.2031 53.3125
Q15.8281 64.3594 23.1875 75.875
z
" id="DejaVuSans-28"/>
      <path d="
M56.2031 29.5938
L56.2031 25.2031
L14.8906 25.2031
Q15.4844 15.9219 20.4844 11.0625
Q25.4844 6.20312 34.4219 6.20312
Q39.5938 6.20312 44.4531 7.46875
Q49.3125 8.73438 54.1094 11.2812
L54.1094 2.78125
Q49.2656 0.734375 44.1875 -0.34375
Q39.1094 -1.42188 33.8906 -1.42188
Q20.7969 -1.42188 13.1562 6.1875
Q5.51562 13.8125 5.51562 26.8125
Q5.51562 40.2344 12.7656 48.1094
Q20.0156 56 32.3281 56
Q43.3594 56 49.7812 48.8906
Q56.2031 41.7969 56.2031 29.5938
M47.2188 32.2344
Q47.125 39.5938 43.0938 43.9844
Q39.0625 48.3906 32.4219 48.3906
Q24.9062 48.3906 20.3906 44.1406
Q15.875 39.8906 15.1875 32.1719
z
" id="DejaVuSans-65"/>
      <path d="
M14.7969 27.2969
Q14.7969 17.3906 18.875 11.75
Q22.9531 6.10938 30.0781 6.10938
Q37.2031 6.10938 41.2969 11.75
Q45.4062 17.3906 45.4062 27.2969
Q45.4062 37.2031 41.2969 42.8438
Q37.2031 48.4844 30.0781 48.4844
Q22.9531 48.4844 18.875 42.8438
Q14.7969 37.2031 14.7969 27.2969
M45.4062 8.20312
Q42.5781 3.32812 38.25 0.953125
Q33.9375 -1.42188 27.875 -1.42188
Q17.9688 -1.42188 11.7344 6.48438
Q5.51562 14.4062 5.51562 27.2969
Q5.51562 40.1875 11.7344 48.0938
Q17.9688 56 27.875 56
Q33.9375 56 38.25 53.625
Q42.5781 51.2656 45.4062 46.3906
L45.4062 54.6875
L54.3906 54.6875
L54.3906 -20.7969
L45.4062 -20.7969
z
" id="DejaVuSans-71"/>
      <path d="
M48.7812 52.5938
L48.7812 44.1875
Q44.9688 46.2969 41.1406 47.3438
Q37.3125 48.3906 33.4062 48.3906
Q24.6562 48.3906 19.8125 42.8438
Q14.9844 37.3125 14.9844 27.2969
Q14.9844 17.2812 19.8125 11.7344
Q24.6562 6.20312 33.4062 6.20312
Q37.3125 6.20312 41.1406 7.25
Q44.9688 8.29688 48.7812 10.4062
L48.7812 2.09375
Q45.0156 0.34375 40.9844 -0.53125
Q36.9688 -1.42188 32.4219 -1.42188
Q20.0625 -1.42188 12.7812 6.34375
Q5.51562 14.1094 5.51562 27.2969
Q5.51562 40.6719 12.8594 48.3281
Q20.2188 56 33.0156 56
Q37.1562 56 41.1094 55.1406
Q45.0625 54.2969 48.7812 52.5938" id="DejaVuSans-63"/>
      <path d="
M41.1094 46.2969
Q39.5938 47.1719 37.8125 47.5781
Q36.0312 48 33.8906 48
Q26.2656 48 22.1875 43.0469
Q18.1094 38.0938 18.1094 28.8125
L18.1094 0
L9.07812 0
L9.07812 54.6875
L18.1094 54.6875
L18.1094 46.1875
Q20.9531 51.1719 25.4844 53.5781
Q30.0312 56 36.5312 56
Q37.4531 56 38.5781 55.875
Q39.7031 55.7656 41.0625 55.5156
z
" id="DejaVuSans-72"/>
     </defs>
     <g transform="translate(184.880625 283.081604331)scale(0.12 -0.12)">
      <use xlink:href="#DejaVuSans-46"/>
      <use x="50.26953125" xlink:href="#DejaVuSans-72"/>
      <use x="89.1328125" xlink:href="#DejaVuSans-65"/>
      <use x="150.65625" xlink:href="#DejaVuSans-71"/>
      <use x="214.1328125" xlink:href="#DejaVuSans-75"/>
      <use x="277.51171875" xlink:href="#DejaVuSans-65"/>
      <use x="339.03515625" xlink:href="#DejaVuSans-6e"/>
      <use x="402.4140625" xlink:href="#DejaVuSans-63"/>
      <use x="457.39453125" xlink:href="#DejaVuSans-79"/>
      <use x="516.57421875" xlink:href="#DejaVuSans-20"/>
      <use x="548.361328125" xlink:href="#DejaVuSans-28"/>
      <use x="587.375" xlink:href="#DejaVuSans-4d"/>
      <use x="673.654296875" xlink:href="#DejaVuSans-48"/>
      <use x="748.849609375" xlink:href="#DejaVuSans-7a"/>
      <use x="801.33984375" xlink:href="#DejaVuSans-29"/>
     </g>
    </g>
   </g>
   <g id="matplotlib.axis_2">
    <g id="ytick_1">
     <g id="line2d_7">
      <path clip-path="url(#p8643bcceb7)" d="
M40.4096 138.782
L429.165 138.782" style="fill:none;stroke:#000000;stroke-dasharray:1.000000,3.000000;stroke-dashoffset:0.0;stroke-width:0.5;"/>
     </g>
     <g id="line2d_8">
      <defs>
       <path d="
M0 0
L4 0" id="m728421d6d4" style="stroke:#000000;stroke-width:0.5;"/>
      </defs>
      <g>
       <use style="stroke:#000000;stroke-width:0.5;" x="40.4096456693" xlink:href="#m728421d6d4" y="138.782285243"/>
      </g>
     </g>
     <g id="line2d_9">
      <defs>
       <path d="
M0 0
L-4 0" id="mcb0005524f" style="stroke:#000000;stroke-width:0.5;"/>
      </defs>
      <g>
       <use style="stroke:#000000;stroke-width:0.5;" x="429.165354331" xlink:href="#mcb0005524f" y="138.782285243"/>
      </g>
     </g>
     <g id="text_4">
      <!-- 0 -->
      <defs>
       <path d="
M31.7812 66.4062
Q24.1719 66.4062 20.3281 58.9062
Q16.5 51.4219 16.5 36.375
Q16.5 21.3906 20.3281 13.8906
Q24.1719 6.39062 31.7812 6.39062
Q39.4531 6.39062 43.2812 13.8906
Q47.125 21.3906 47.125 36.375
Q47.125 51.4219 43.2812 58.9062
Q39.4531 66.4062 31.7812 66.4062
M31.7812 74.2188
Q44.0469 74.2188 50.5156 64.5156
Q56.9844 54.8281 56.9844 36.375
Q56.9844 17.9688 50.5156 8.26562
Q44.0469 -1.42188 31.7812 -1.42188
Q19.5312 -1.42188 13.0625 8.26562
Q6.59375 17.9688 6.59375 36.375
Q6.59375 54.8281 13.0625 64.5156
Q19.5312 74.2188 31.7812 74.2188" id="DejaVuSans-30"/>
      </defs>
      <g transform="translate(31.3705831693 141.541660243)scale(0.1 -0.1)">
       <use xlink:href="#DejaVuSans-30"/>
      </g>
     </g>
    </g>
    <g id="ytick_2">
     <g id="line2d_10">
      <path clip-path="url(#p8643bcceb7)" d="
M40.4096 109.742
L429.165 109.742" style="fill:none;stroke:#000000;stroke-dasharray:1.000000,3.000000;stroke-dashoffset:0.0;stroke-width:0.5;"/>
     </g>
     <g id="line2d_11">
      <g>
       <use style="stroke:#000000;stroke-width:0.5;" x="40.4096456693" xlink:href="#m728421d6d4" y="109.742497177"/>
      </g>
     </g>
     <g id="line2d_12">
      <g>
       <use style="stroke:#000000;stroke-width:0.5;" x="429.165354331" xlink:href="#mcb0005524f" y="109.742497177"/>
      </g>
     </g>
     <g id="text_5">
      <!-- 50 -->
      <g transform="translate(25.1205831693 112.501872177)scale(0.1 -0.1)">
       <use xlink:href="#DejaVuSans-35"/>
       <use x="63.623046875" xlink:href="#DejaVuSans-30"/>
      </g>
     </g>
    </g>
    <g id="ytick_3">
     <g id="line2d_13">
      <path clip-path="url(#p8643bcceb7)" d="
M40.4096 7.52244
L429.165 7.52244" style="fill:none;stroke:#000000;stroke-dasharray:1.000000,3.000000;stroke-dashoffset:0.0;stroke-width:0.5;"/>
     </g>
     <g id="line2d_14">
      <g>
       <use style="stroke:#000000;stroke-width:0.5;" x="40.4096456693" xlink:href="#m728421d6d4" y="7.522443187"/>
      </g>
     </g>
     <g id="line2d_15">
      <g>
       <use style="stroke:#000000;stroke-width:0.5;" x="429.165354331" xlink:href="#mcb0005524f" y="7.522443187"/>
      </g>
     </g>
     <g id="text_6">
      <!-- 226 -->
      <defs>
       <path d="
M33.0156 40.375
Q26.375 40.375 22.4844 35.8281
Q18.6094 31.2969 18.6094 23.3906
Q18.6094 15.5312 22.4844 10.9531
Q26.375 6.39062 33.0156 6.39062
Q39.6562 6.39062 43.5312 10.9531
Q47.4062 15.5312 47.4062 23.3906
Q47.4062 31.2969 43.5312 35.8281
Q39.6562 40.375 33.0156 40.375
M52.5938 71.2969
L52.5938 62.3125
Q48.875 64.0625 45.0938 64.9844
Q41.3125 65.9219 37.5938 65.9219
Q27.8281 65.9219 22.6719 59.3281
Q17.5312 52.7344 16.7969 39.4062
Q19.6719 43.6562 24.0156 45.9219
Q28.375 48.1875 33.5938 48.1875
Q44.5781 48.1875 50.9531 41.5156
Q57.3281 34.8594 57.3281 23.3906
Q57.3281 12.1562 50.6875 5.35938
Q44.0469 -1.42188 33.0156 -1.42188
Q20.3594 -1.42188 13.6719 8.26562
Q6.98438 17.9688 6.98438 36.375
Q6.98438 53.6562 15.1875 63.9375
Q23.3906 74.2188 37.2031 74.2188
Q40.9219 74.2188 44.7031 73.4844
Q48.4844 72.75 52.5938 71.2969" id="DejaVuSans-36"/>
      </defs>
      <g transform="translate(18.6846456693 10.281818187)scale(0.1 -0.1)">
       <use xlink:href="#DejaVuSans-32"/>
       <use x="63.623046875" xlink:href="#DejaVuSans-32"/>
       <use x="127.24609375" xlink:href="#DejaVuSans-36"/>
      </g>
     </g>
    </g>
    <g id="text_7">
     <!-- Impedance (Ohms) -->
     <defs>
      <path d="
M39.4062 66.2188
Q28.6562 66.2188 22.3281 58.2031
Q16.0156 50.2031 16.0156 36.375
Q16.0156 22.6094 22.3281 14.5938
Q28.6562 6.59375 39.4062 6.59375
Q50.1406 6.59375 56.4219 14.5938
Q62.7031 22.6094 62.7031 36.375
Q62.7031 50.2031 56.4219 58.2031
Q50.1406 66.2188 39.4062 66.2188
M39.4062 74.2188
Q54.7344 74.2188 63.9062 63.9375
Q73.0938 53.6562 73.0938 36.375
Q73.0938 19.1406 63.9062 8.85938
Q54.7344 -1.42188 39.4062 -1.42188
Q24.0312 -1.42188 14.8125 8.82812
Q5.60938 19.0938 5.60938 36.375
Q5.60938 53.6562 14.8125 63.9375
Q24.0312 74.2188 39.4062 74.2188" id="DejaVuSans-4f"/>
      <path d="
M52 44.1875
Q55.375 50.25 60.0625 53.125
Q64.75 56 71.0938 56
Q79.6406 56 84.2812 50.0156
Q88.9219 44.0469 88.9219 33.0156
L88.9219 0
L79.8906 0
L79.8906 32.7188
Q79.8906 40.5781 77.0938 44.375
Q74.3125 48.1875 68.6094 48.1875
Q61.625 48.1875 57.5625 43.5469
Q53.5156 38.9219 53.5156 30.9062
L53.5156 0
L44.4844 0
L44.4844 32.7188
Q44.4844 40.625 41.7031 44.4062
Q38.9219 48.1875 33.1094 48.1875
Q26.2188 48.1875 22.1562 43.5312
Q18.1094 38.875 18.1094 30.9062
L18.1094 0
L9.07812 0
L9.07812 54.6875
L18.1094 54.6875
L18.1094 46.1875
Q21.1875 51.2188 25.4844 53.6094
Q29.7812 56 35.6875 56
Q41.6562 56 45.8281 52.9688
Q50 49.9531 52 44.1875" id="DejaVuSans-6d"/>
      <path d="
M18.1094 8.20312
L18.1094 -20.7969
L9.07812 -20.7969
L9.07812 54.6875
L18.1094 54.6875
L18.1094 46.3906
Q20.9531 51.2656 25.2656 53.625
Q29.5938 56 35.5938 56
Q45.5625 56 51.7812 48.0938
Q58.0156 40.1875 58.0156 27.2969
Q58.0156 14.4062 51.7812 6.48438
Q45.5625 -1.42188 35.5938 -1.42188
Q29.5938 -1.42188 25.2656 0.953125
Q20.9531 3.32812 18.1094 8.20312
M48.6875 27.2969
Q48.6875 37.2031 44.6094 42.8438
Q40.5312 48.4844 33.4062 48.4844
Q26.2656 48.4844 22.1875 42.8438
Q18.1094 37.2031 18.1094 27.2969
Q18.1094 17.3906 22.1875 11.75
Q26.2656 6.10938 33.4062 6.10938
Q40.5312 6.10938 44.6094 11.75
Q48.6875 17.3906 48.6875 27.2969" id="DejaVuSans-70"/>
      <path d="
M54.8906 33.0156
L54.8906 0
L45.9062 0
L45.9062 32.7188
Q45.9062 40.4844 42.875 44.3281
Q39.8438 48.1875 33.7969 48.1875
Q26.5156 48.1875 22.3125 43.5469
Q18.1094 38.9219 18.1094 30.9062
L18.1094 0
L9.07812 0
L9.07812 75.9844
L18.1094 75.9844
L18.1094 46.1875
Q21.3438 51.125 25.7031 53.5625
Q30.0781 56 35.7969 56
Q45.2188 56 50.0469 50.1719
Q54.8906 44.3438 54.8906 33.0156" id="DejaVuSans-68"/>
      <path d="
M45.4062 46.3906
L45.4062 75.9844
L54.3906 75.9844
L54.3906 0
L45.4062 0
L45.4062 8.20312
Q42.5781 3.32812 38.25 0.953125
Q33.9375 -1.42188 27.875 -1.42188
Q17.9688 -1.42188 11.7344 6.48438
Q5.51562 14.4062 5.51562 27.2969
Q5.51562 40.1875 11.7344 48.0938
Q17.9688 56 27.875 56
Q33.9375 56 38.25 53.625
Q42.5781 51.2656 45.4062 46.3906
M14.7969 27.2969
Q14.7969 17.3906 18.875 11.75
Q22.9531 6.10938 30.0781 6.10938
Q37.2031 6.10938 41.2969 11.75
Q45.4062 17.3906 45.4062 27.2969
Q45.4062 37.2031 41.2969 42.8438
Q37.2031 48.4844 30.0781 48.4844
Q22.9531 48.4844 18.875 42.8438
Q14.7969 37.2031 14.7969 27.2969" id="DejaVuSans-64"/>
      <path d="
M9.8125 72.9062
L19.6719 72.9062
L19.6719 0
L9.8125 0
z
" id="DejaVuSans-49"/>
      <path d="
M44.2812 53.0781
L44.2812 44.5781
Q40.4844 46.5312 36.375 47.5
Q32.2812 48.4844 27.875 48.4844
Q21.1875 48.4844 17.8438 46.4375
Q14.5 44.3906 14.5 40.2812
Q14.5 37.1562 16.8906 35.375
Q19.2812 33.5938 26.5156 31.9844
L29.5938 31.2969
Q39.1562 29.25 43.1875 25.5156
Q47.2188 21.7812 47.2188 15.0938
Q47.2188 7.46875 41.1875 3.01562
Q35.1562 -1.42188 24.6094 -1.42188
Q20.2188 -1.42188 15.4531 -0.5625
Q10.6875 0.296875 5.42188 2
L5.42188 11.2812
Q10.4062 8.6875 15.2344 7.39062
Q20.0625 6.10938 24.8125 6.10938
Q31.1562 6.10938 34.5625 8.28125
Q37.9844 10.4531 37.9844 14.4062
Q37.9844 18.0625 35.5156 20.0156
Q33.0625 21.9688 24.7031 23.7812
L21.5781 24.5156
Q13.2344 26.2656 9.51562 29.9062
Q5.8125 33.5469 5.8125 39.8906
Q5.8125 47.6094 11.2812 51.7969
Q16.75 56 26.8125 56
Q31.7812 56 36.1719 55.2656
Q40.5781 54.5469 44.2812 53.0781" id="DejaVuSans-73"/>
      <path d="
M34.2812 27.4844
Q23.3906 27.4844 19.1875 25
Q14.9844 22.5156 14.9844 16.5
Q14.9844 11.7188 18.1406 8.90625
Q21.2969 6.10938 26.7031 6.10938
Q34.1875 6.10938 38.7031 11.4062
Q43.2188 16.7031 43.2188 25.4844
L43.2188 27.4844
z

M52.2031 31.2031
L52.2031 0
L43.2188 0
L43.2188 8.29688
Q40.1406 3.32812 35.5469 0.953125
Q30.9531 -1.42188 24.3125 -1.42188
Q15.9219 -1.42188 10.9531 3.29688
Q6 8.01562 6 15.9219
Q6 25.1406 12.1719 29.8281
Q18.3594 34.5156 30.6094 34.5156
L43.2188 34.5156
L43.2188 35.4062
Q43.2188 41.6094 39.1406 45
Q35.0625 48.3906 27.6875 48.3906
Q23 48.3906 18.5469 47.2656
Q14.1094 46.1406 10.0156 43.8906
L10.0156 52.2031
Q14.9375 54.1094 19.5781 55.0469
Q24.2188 56 28.6094 56
Q40.4844 56 46.3438 49.8438
Q52.2031 43.7031 52.2031 31.2031" id="DejaVuSans-61"/>
     </defs>
     <g transform="translate(11.1890206693 187.205744736)rotate(-90.0)scale(0.12 -0.12)">
      <use xlink:href="#DejaVuSans-49"/>
      <use x="29.4921875" xlink:href="#DejaVuSans-6d"/>
      <use x="126.904296875" xlink:href="#DejaVuSans-70"/>
      <use x="190.380859375" xlink:href="#DejaVuSans-65"/>
      <use x="251.904296875" xlink:href="#DejaVuSans-64"/>
      <use x="315.380859375" xlink:href="#DejaVuSans-61"/>
      <use x="376.66015625" xlink:href="#DejaVuSans-6e"/>
      <use x="440.0390625" xlink:href="#DejaVuSans-63"/>
      <use x="495.01953125" xlink:href="#DejaVuSans-65"/>
      <use x="556.54296875" xlink:href="#DejaVuSans-20"/>
      <use x="588.330078125" xlink:href="#DejaVuSans-28"/>
      <use x="627.34375" xlink:href="#DejaVuSans-4f"/>
      <use x="706.0546875" xlink:href="#DejaVuSans-68"/>
      <use x="769.43359375" xlink:href="#DejaVuSans-6d"/>
      <use x="866.845703125" xlink:href="#DejaVuSans-73"/>
      <use x="918.9453125" xlink:href="#DejaVuSans-29"/>
     </g>
    </g>
   </g>
   <g id="line2d_16">
    <path clip-path="url(#p8643bcceb7)" d="
M40.4096 136.365
L44.3365 136.298
L48.2633 136.229
L52.1901 136.156
L56.1169 136.08
L60.0438 136
L63.9706 135.917
L67.8974 135.829
L71.8242 135.737
L75.7511 135.64
L79.6779 135.538
L83.6047 135.431
L87.5315 135.317
L91.4584 135.198
L95.3852 135.072
L99.312 134.939
L103.239 134.798
L107.166 134.648
L111.093 134.49
L115.019 134.321
L118.946 134.142
L122.873 133.952
L126.8 133.749
L130.727 133.532
L134.653 133.3
L138.58 133.052
L142.507 132.786
L146.434 132.5
L150.361 132.193
L154.288 131.862
L158.214 131.504
L162.141 131.117
L166.068 130.698
L169.995 130.242
L173.922 129.746
L177.849 129.204
L181.775 128.612
L185.702 127.962
L189.629 127.248
L193.556 126.46
L197.483 125.589
L201.409 124.623
L205.336 123.547
L209.263 122.346
L213.19 121.001
L217.117 119.487
L221.044 117.779
L224.97 115.845
L228.897 113.644
L232.824 111.132
L236.751 108.254
L240.678 104.945
L244.605 101.13
L248.531 96.7218
L252.458 91.6228
L256.385 85.7294
L260.312 78.941
L264.239 71.1786
L268.166 62.4168
L272.092 52.7355
L276.019 42.3899
L279.946 31.8893
L283.873 22.048
L287.8 13.9447
L291.726 8.72993
L295.653 7.29157
L299.58 9.92143
L303.507 16.1894
L307.434 25.1158
L311.361 35.5226
L315.287 46.3549
L319.214 56.8479
L323.141 66.5455
L327.068 75.2377
L330.995 82.8791
L334.922 89.5186
L338.848 95.2507
L342.775 100.186
L346.702 104.433
L350.629 108.094
L354.556 111.257
L358.482 113.998
L362.409 116.382
L366.336 118.463
L370.263 120.287
L374.19 121.892
L378.117 123.309
L382.043 124.565
L385.97 125.682
L389.897 126.68
L393.824 127.574
L397.751 128.377
L401.678 129.1
L405.604 129.755
L409.531 130.348
L413.458 130.887
L417.385 131.379
L421.312 131.828
L425.239 132.239
L429.165 132.616" style="fill:none;stroke:#009afa;stroke-linecap:round;"/>
   </g>
   <g id="line2d_17">
    <path clip-path="url(#p8643bcceb7)" d="
M40.4096 185.877
L44.3365 185.396
L48.2633 184.91
L52.1901 184.418
L56.1169 183.92
L60.0438 183.415
L63.9706 182.904
L67.8974 182.385
L71.8242 181.859
L75.7511 181.324
L79.6779 180.78
L83.6047 180.227
L87.5315 179.665
L91.4584 179.091
L95.3852 178.507
L99.312 177.911
L103.239 177.302
L107.166 176.679
L111.093 176.043
L115.019 175.391
L118.946 174.722
L122.873 174.037
L126.8 173.333
L130.727 172.61
L134.653 171.865
L138.58 171.099
L142.507 170.308
L146.434 169.492
L150.361 168.648
L154.288 167.775
L158.214 166.871
L162.141 165.933
L166.068 164.96
L169.995 163.948
L173.922 162.894
L177.849 161.796
L181.775 160.651
L185.702 159.455
L189.629 158.204
L193.556 156.895
L197.483 155.523
L201.409 154.085
L205.336 152.577
L209.263 150.995
L213.19 149.334
L217.117 147.593
L221.044 145.77
L224.97 143.866
L228.897 141.883
L232.824 139.831
L236.751 137.723
L240.678 135.584
L244.605 133.454
L248.531 131.393
L252.458 129.491
L256.385 127.876
L260.312 126.736
L264.239 126.329
L268.166 126.998
L272.092 129.179
L276.019 133.377
L279.946 140.095
L283.873 149.691
L287.8 162.182
L291.726 177.052
L295.653 193.207
L299.58 209.19
L303.507 223.58
L307.434 235.383
L311.361 244.196
L315.287 250.13
L319.214 253.606
L323.141 255.154
L327.068 255.285
L330.995 254.43
L334.922 252.921
L338.848 251.005
L342.775 248.856
L346.702 246.595
L350.629 244.304
L354.556 242.035
L358.482 239.823
L362.409 237.687
L366.336 235.639
L370.263 233.685
L374.19 231.826
L378.117 230.06
L382.043 228.385
L385.97 226.796
L389.897 225.288
L393.824 223.859
L397.751 222.501
L401.678 221.212
L405.604 219.986
L409.531 218.82
L413.458 217.709
L417.385 216.649
L421.312 215.638
L425.239 214.672
L429.165 213.747" style="fill:none;stroke:#e36f47;stroke-linecap:round;"/>
   </g>
   <g id="patch_3">
    <path d="
M40.4096 5.19926
L429.165 5.19926" style="fill:none;stroke:#000000;"/>
   </g>
   <g id="patch_4">
    <path d="
M429.165 255.285
L429.165 5.19926" style="fill:none;stroke:#000000;"/>
   </g>
   <g id="patch_5">
    <path d="
M40.4096 255.285
L429.165 255.285" style="fill:none;stroke:#000000;"/>
   </g>
   <g id="patch_6">
    <path d="
M40.4096 255.285
L40.4096 5.19926" style="fill:none;stroke:#000000;"/>
   </g>
   <g id="line2d_18">
    <path clip-path="url(#p8643bcceb7)" d="
M40.4096 159.457
L44.3365 158.997
L48.2633 158.538
L52.1901 158.082
L56.1169 157.627
L60.0438 157.175
L63.9706 156.724
L67.8974 156.276
L71.8242 155.83
L75.7511 155.385
L79.6779 154.942
L83.6047 154.502
L87.5315 154.063
L91.4584 153.626
L95.3852 153.191
L99.312 152.757
L103.239 152.326
L107.166 151.896
L111.093 151.468
L115.019 151.042
L118.946 150.617
L122.873 150.194
L126.8 149.773
L130.727 149.353
L134.653 148.935
L138.58 148.519
L142.507 148.104
L146.434 147.691
L150.361 147.28
L154.288 146.87
L158.214 146.461
L162.141 146.054
L166.068 145.649
L169.995 145.245
L173.922 144.843
L177.849 144.442
L181.775 144.042
L185.702 143.644
L189.629 143.247
L193.556 142.852
L197.483 142.458
L201.409 142.065
L205.336 141.674
L209.263 141.284
L213.19 140.896
L217.117 140.509
L221.044 140.123
L224.97 139.738
L228.897 139.355
L232.824 138.973
L236.751 138.592
L240.678 138.212
L244.605 137.834
L248.531 137.457
L252.458 137.081
L256.385 136.706
L260.312 136.333
L264.239 135.961
L268.166 135.589
L272.092 135.219
L276.019 134.85
L279.946 134.483
L283.873 134.116
L287.8 133.75
L291.726 133.386
L295.653 133.023
L299.58 132.66
L303.507 132.299
L307.434 131.939
L311.361 131.58
L315.287 131.222
L319.214 130.865
L323.141 130.509
L327.068 130.154
L330.995 129.8
L334.922 129.447
L338.848 129.095
L342.775 128.743
L346.702 128.393
L350.629 128.044
L354.556 127.696
L358.482 127.349
L362.409 127.002
L366.336 126.657
L370.263 126.312
L374.19 125.969
L378.117 125.626
L382.043 125.284
L385.97 124.943
L389.897 124.603
L393.824 124.264
L397.751 123.926
L401.678 123.588
L405.604 123.251
L409.531 122.916
L413.458 122.581
L417.385 122.246
L421.312 121.913
L425.239 121.581
L429.165 121.249" style="fill:none;stroke:#3ea44e;stroke-linecap:round;"/>
   </g>
   <g id="legend_1">
    <g id="patch_7">
     <path d="
M45.4096 57.2336
L153.775 57.2336
L153.775 10.1993
L45.4096 10.1993
L45.4096 57.2336
z
" style="fill:#ffffff;stroke:#000000;"/>
    </g>
    <g id="line2d_19">
     <path d="
M52.4096 18.2977
L66.4096 18.2977" style="fill:none;stroke:#009afa;stroke-linecap:round;"/>
    </g>
    <g id="line2d_20"/>
    <g id="text_8">
     <!-- Rᵢₙ -->
     <defs>
      <path d="
M44.3906 34.1875
Q47.5625 33.1094 50.5625 29.5938
Q53.5625 26.0781 56.5938 19.9219
L66.6094 0
L56 0
L46.6875 18.7031
Q43.0625 26.0312 39.6719 28.4219
Q36.2812 30.8125 30.4219 30.8125
L19.6719 30.8125
L19.6719 0
L9.8125 0
L9.8125 72.9062
L32.0781 72.9062
Q44.5781 72.9062 50.7344 67.6719
Q56.8906 62.4531 56.8906 51.9062
Q56.8906 45.0156 53.6875 40.4688
Q50.4844 35.9375 44.3906 34.1875
M19.6719 64.7969
L19.6719 38.9219
L32.0781 38.9219
Q39.2031 38.9219 42.8438 42.2188
Q46.4844 45.5156 46.4844 51.9062
Q46.4844 58.2969 42.8438 61.5469
Q39.2031 64.7969 32.0781 64.7969
z
" id="DejaVuSans-52"/>
      <path d="
M34.5781 18.125
L34.5781 -0.375
L28.9062 -0.375
L28.9062 17.9219
Q28.9062 22.2812 27 24.4531
Q25.0938 26.625 21.2969 26.625
Q16.7031 26.625 14.0625 24
Q11.4219 21.3906 11.4219 16.9062
L11.4219 -0.375
L5.71875 -0.375
L5.71875 30.2344
L11.4219 30.2344
L11.4219 25.5
Q13.4219 28.2344 16.1875 29.5938
Q18.9531 30.9688 22.5625 30.9688
Q28.4688 30.9688 31.5156 27.6875
Q34.5781 24.4219 34.5781 18.125" id="DejaVuSans-2099"/>
      <path d="
M5.95312 30.2344
L11.625 30.2344
L11.625 -0.375
L5.95312 -0.375
z

M5.95312 42.1406
L11.625 42.1406
L11.625 35.7969
L5.95312 35.7969
z
" id="DejaVuSans-1d62"/>
     </defs>
     <g transform="translate(77.4096456693 21.7976976418)scale(0.1 -0.1)">
      <use xlink:href="#DejaVuSans-52"/>
      <use x="69.482421875" xlink:href="#DejaVuSans-1d62"/>
      <use x="87.353515625" xlink:href="#DejaVuSans-2099"/>
     </g>
    </g>
    <g id="line2d_21">
     <path d="
M52.4096 32.9758
L66.4096 32.9758" style="fill:none;stroke:#e36f47;stroke-linecap:round;"/>
    </g>
    <g id="line2d_22"/>
    <g id="text_9">
     <!-- Xᵢₙ -->
     <defs>
      <path d="
M6.29688 72.9062
L16.8906 72.9062
L35.0156 45.7969
L53.2188 72.9062
L63.8125 72.9062
L40.375 37.8906
L65.375 0
L54.7812 0
L34.2812 31
L13.625 0
L2.98438 0
L29 38.9219
z
" id="DejaVuSans-58"/>
     </defs>
     <g transform="translate(77.4096456693 36.4758226418)scale(0.1 -0.1)">
      <use xlink:href="#DejaVuSans-58"/>
      <use x="68.505859375" xlink:href="#DejaVuSans-1d62"/>
      <use x="86.376953125" xlink:href="#DejaVuSans-2099"/>
     </g>
    </g>
    <g id="line2d_23">
     <path d="
M52.4096 47.6539
L66.4096 47.6539" style="fill:none;stroke:#3ea44e;stroke-linecap:round;"/>
    </g>
    <g id="line2d_24"/>
    <g id="text_10">
     <!-- Xₚ+Xₘ+Xₚᵣₑₐₘₚ -->
     <defs>
      <path d="
M46 62.7031
L46 35.5
L73.1875 35.5
L73.1875 27.2031
L46 27.2031
L46 0
L37.7969 0
L37.7969 27.2031
L10.5938 27.2031
L10.5938 35.5
L37.7969 35.5
L37.7969 62.7031
z
" id="DejaVuSans-2b"/>
      <path d="
M25.875 25.5469
Q24.9531 26.0312 23.8281 26.25
Q22.7031 26.4688 21.3438 26.4688
Q16.5469 26.4688 13.9844 23.7031
Q11.4219 20.9531 11.4219 15.7344
L11.4219 -0.375
L5.71875 -0.375
L5.71875 30.2344
L11.4219 30.2344
L11.4219 25.5
Q13.1875 28.2812 16.0312 29.625
Q18.8906 30.9688 23 30.9688
Q23.5781 30.9688 24.2812 30.9219
Q25 30.875 25.875 30.7188
z
" id="DejaVuSans-1d63"/>
      <path d="
M11.4219 4.20312
L11.4219 -12.0469
L5.71875 -12.0469
L5.71875 30.2344
L11.4219 30.2344
L11.4219 25.5938
Q13.1875 28.3281 15.9219 29.6406
Q18.6562 30.9688 22.4062 30.9688
Q28.7188 30.9688 32.625 26.5781
Q36.5312 22.125 36.5312 14.8906
Q36.5312 7.67188 32.625 3.23438
Q28.7188 -1.15625 22.4062 -1.15625
Q18.6562 -1.15625 15.9219 0.15625
Q13.1875 1.46875 11.4219 4.20312
M28.125 6.20312
Q30.6719 9.32812 30.6719 14.8906
Q30.6719 20.4688 28.125 23.5938
Q25.5312 26.7656 21.0312 26.7656
Q16.5469 26.7656 13.9688 23.5938
Q11.4219 20.4688 11.4219 14.8906
Q11.4219 9.32812 13.9688 6.20312
Q16.5469 3.03125 21.0312 3.03125
Q25.5312 3.03125 28.125 6.20312
z
" id="DejaVuSans-209a"/>
      <path d="
M35.4062 16.1719
L35.4062 13.7344
L9.375 13.7344
Q9.76562 8.54688 12.8906 5.8125
Q16.0625 3.07812 21.6875 3.07812
Q24.9531 3.07812 28.0312 3.8125
Q31.0625 4.5 34.0781 5.92188
L34.0781 1.1875
Q31.0625 0.015625 27.8281 -0.578125
Q24.6562 -1.15625 21.3438 -1.15625
Q13.0938 -1.15625 8.29688 3.07812
Q3.46875 7.32812 3.46875 14.6094
Q3.46875 22.125 8.0625 26.5781
Q12.5938 30.9688 20.3594 30.9688
Q27.2969 30.9688 31.3438 27.0156
Q35.4062 23 35.4062 16.1719
M29.7344 17.6875
Q29.6875 21.7812 27.1562 24.2812
Q24.6094 26.7188 20.4062 26.7188
Q15.6719 26.7188 12.8438 24.3281
Q10.0156 21.9844 9.57812 17.6875
z
" id="DejaVuSans-2091"/>
      <path d="
M21.5781 15
Q14.75 15 12.1094 13.625
Q9.42188 12.2188 9.42188 8.84375
Q9.42188 6.15625 11.4219 4.59375
Q13.4219 3.03125 16.8438 3.03125
Q21.5312 3.03125 24.3594 6.01562
Q27.25 9 27.25 13.875
L27.25 15
z

M32.8594 17.0938
L32.8594 -0.375
L27.25 -0.375
L27.25 4.25
Q25.2969 1.46875 22.4062 0.15625
Q19.4844 -1.15625 15.3281 -1.15625
Q10.0156 -1.15625 6.89062 1.46875
Q3.76562 4.10938 3.76562 8.54688
Q3.76562 13.6875 7.67188 16.3125
Q11.5781 18.9531 19.2812 18.9531
L27.25 18.9531
L27.25 19.4375
Q27.25 22.9062 24.6562 24.8125
Q22.0781 26.7188 17.4375 26.7188
Q14.5 26.7188 11.6719 26.0781
Q8.89062 25.4531 6.29688 24.1719
L6.29688 28.8594
Q9.42188 29.8906 12.3594 30.4219
Q15.2344 30.9688 18.0156 30.9688
Q25.4844 30.9688 29.2031 27.5469
Q32.8594 24.0781 32.8594 17.0938" id="DejaVuSans-2090"/>
      <path d="
M33.6875 16.9062
L33.6875 -0.375
L28.0312 -0.375
L28.0312 17.9219
Q28.0312 22.375 26.2656 24.5
Q24.5156 26.625 20.8438 26.625
Q16.5 26.625 13.9531 24
Q11.4219 21.3906 11.4219 16.9062
L11.4219 -0.375
L5.71875 -0.375
L5.71875 30.2344
L11.4219 30.2344
L11.4219 25.5
Q13.3281 28.2812 16.0312 29.625
Q18.75 30.9688 22.5156 30.9688
Q26.2188 30.9688 28.8594 29.2812
Q31.5 27.5938 32.7656 24.375
Q34.8594 27.75 37.8125 29.3594
Q40.7656 30.9688 44.7812 30.9688
Q50.2031 30.9688 53.0938 27.625
Q56 24.2812 56 18.125
L56 -0.375
L50.3438 -0.375
L50.3438 17.9219
Q50.3438 22.3281 48.5781 24.4688
Q46.8281 26.625 43.2188 26.625
Q38.8125 26.625 36.25 24
Q33.6875 21.3906 33.6875 16.9062" id="DejaVuSans-2098"/>
     </defs>
     <g transform="translate(77.4096456693 51.1539476418)scale(0.1 -0.1)">
      <use xlink:href="#DejaVuSans-58"/>
      <use x="68.505859375" xlink:href="#DejaVuSans-209a"/>
      <use x="111.328125" xlink:href="#DejaVuSans-2b"/>
      <use x="195.1171875" xlink:href="#DejaVuSans-58"/>
      <use x="263.623046875" xlink:href="#DejaVuSans-2098"/>
      <use x="325.927734375" xlink:href="#DejaVuSans-2b"/>
      <use x="409.716796875" xlink:href="#DejaVuSans-58"/>
      <use x="478.22265625" xlink:href="#DejaVuSans-209a"/>
      <use x="521.044921875" xlink:href="#DejaVuSans-1d63"/>
      <use x="546.923828125" xlink:href="#DejaVuSans-2091"/>
      <use x="588.623046875" xlink:href="#DejaVuSans-2090"/>
      <use x="627.783203125" xlink:href="#DejaVuSans-2098"/>
      <use x="690.087890625" xlink:href="#DejaVuSans-209a"/>
     </g>
    </g>
   </g>
  </g>
 </g>
 <defs>
  <clipPath id="p8643bcceb7">
   <rect height="250.086094189" width="388.755708661" x="40.4096456693" y="5.19926014177"/>
  </clipPath>
 </defs>
</svg>
