<?xml version="1.0" encoding="UTF-8" standalone="no"?>
<!-- Generator: Adobe Illustrator 19.1.0, SVG Export Plug-In . SVG Version: 6.00 Build 0)  -->

<svg
   xmlns:dc="http://purl.org/dc/elements/1.1/"
   xmlns:cc="http://creativecommons.org/ns#"
   xmlns:rdf="http://www.w3.org/1999/02/22-rdf-syntax-ns#"
   xmlns:svg="http://www.w3.org/2000/svg"
   xmlns="http://www.w3.org/2000/svg"
   xmlns:sodipodi="http://sodipodi.sourceforge.net/DTD/sodipodi-0.dtd"
   xmlns:inkscape="http://www.inkscape.org/namespaces/inkscape"
   version="1.1"
   id="Coil::Bottom::v2::Layer_10"
   x="0px"
   y="0px"
   viewBox="0 0 1022.3 1197.7"
   style="enable-background:new 0 0 1022.3 1197.7;"
   xml:space="preserve"
   inkscape:version="0.91 r13725"
   sodipodi:docname="back_loops (copy).svg"><metadata
     id="metadata57"><rdf:RDF><cc:Work
         rdf:about=""><dc:format>image/svg+xml</dc:format><dc:type
           rdf:resource="http://purl.org/dc/dcmitype/StillImage" /></cc:Work></rdf:RDF></metadata><defs
     id="defs55" /><sodipodi:namedview
     pagecolor="#ffffff"
     bordercolor="#666666"
     borderopacity="1"
     objecttolerance="10"
     gridtolerance="10"
     guidetolerance="10"
     inkscape:pageopacity="0"
     inkscape:pageshadow="2"
     inkscape:window-width="2495"
     inkscape:window-height="1416"
     id="namedview53"
     showgrid="false"
     inkscape:zoom="0.19704434"
     inkscape:cx="404.575"
     inkscape:cy="598.84998"
     inkscape:window-x="65"
     inkscape:window-y="24"
     inkscape:window-maximized="1"
     inkscape:current-layer="Coil::Bottom::v2::Layer_10" /><style
     type="text/css"
     id="style3">
	.st0{fill:none;stroke:#000000;stroke-linecap:round;stroke-linejoin:round;}
</style><path
     loopid="BCK_9B"
     class="st0"
     d="m 384.36356,1097 c 3.2,16.2 9.7,31.6 18.8,45.4 9.1,13.8 20.9,25.8 34.7,34.8 13.8,9 29.5,14.9 45.7,18 16.2,3.1 33,3.3 49.2,0.5 16.3,-2.8 32.1,-8.5 46,-17.2 14,-8.7 26.1,-20.4 35.6,-33.9 9.5,-13.5 16.3,-28.9 19.8,-45 3.5,-16.1 3.8,-32.9 0.8,-49.1 -3,-16.2 -9.5,-31.8 -18.7,-45.4 -9.3,-13.6 -21.4,-25.2 -35.3,-34.2 -13.9,-9 -29.4,-15.3 -45.5,-18.6 -16.2,-3.3 -32.9,-3.5 -49.2,-0.6 -16.2,2.9 -31.9,8.9 -45.9,17.6 -14,8.7 -26.4,20.1 -36,33.5 -9.6,13.4 -16.3,28.8 -19.8,45 -3.3,16.2 -3.4,33.1 -0.2,49.2 z"
     id="path5"
     inkscape:connector-curvature="0"
     style="fill:none;stroke:#000000;stroke-linecap:round;stroke-linejoin:round" /><path
     loopid="BCK_9A"
     class="st0"
     d="m 599.96356,799 c -12.8,-10.6 -27.5,-18.9 -43.2,-24.5 -15.7,-5.6 -32.4,-8.5 -49,-8.3 -16.6,0.2 -33.2,3.5 -48.8,9.5 -15.5,6 -30,14.6 -42.6,25.6 -12.5,11 -23.1,24.4 -30,39.5 -6.9,15.1 -10.1,32 -9.4,48.6 0.7,16.6 5.3,33 12.8,47.9 7.5,14.9 17.9,28.3 30.3,39.4 12.4,11.1 26.8,20 42.4,25.9 15.6,5.9 32.3,8.9 48.9,8.6 16.7,-0.2 33.3,-3.7 48.7,-10 15.4,-6.3 29.6,-15.6 41.7,-27 12.1,-11.4 22.1,-25.1 29.2,-40.2 7.1,-15.1 11.3,-31.6 11.5,-48.3 0.1,-16.6 -3.8,-33.4 -11.3,-48.2 -7.4,-14.8 -18.4,-27.8 -31.2,-38.5 z"
     id="path7"
     inkscape:connector-curvature="0"
     style="fill:none;stroke:#000000;stroke-linecap:round;stroke-linejoin:round" /><path
     loopid="BCK_10A"
     class="st0"
     d="m 807.46356,1004.7 c 16.5,5.3 34,7.3 51.2,6.1 17.2,-1.3 34.2,-5.8 50,-12.8 15.8,-7.1 30.4,-16.7 43.3,-28.2 12.9,-11.5 24.2,-24.9 33.3,-39.6 9.1,-14.7 16.00004,-30.7 20.10004,-47.6 4.1,-16.9 5.5,-34.8 1.1,-51.4 -4.4,-16.6 -14.60004,-31.8 -28.10004,-42.4 -13.5,-10.6 -30.4,-16.5 -47.6,-19.6 -17.1,-3.1 -34.5,-3.5 -51.7,-1.8 -17.2,1.7 -34.2,5.5 -50.6,11.2 -16.3,5.7 -32,13.4 -46.2,23.3 -14.2,9.9 -27,21.9 -36.8,36.2 -9.8,14.3 -16.5,30.8 -18.7,47.9 -2.2,17.1 0,34.9 6.3,51 6.3,16.1 16.6,30.6 29.5,42.2 13,11.5 28.4,20.2 44.9,25.5 z"
     id="path9"
     inkscape:connector-curvature="0"
     style="fill:none;stroke:#000000;stroke-linecap:round;stroke-linejoin:round" /><path
     loopid="BCK_11B"
     class="st0"
     d="m 738.66356,733.2 c 3.9,17.1 12.5,33.1 24.3,46.2 11.7,13.1 26.5,23.2 42.5,30.6 16,7.4 33.1,12 50.6,14.2 17.4,2.1 35.2,1.7 52.5,-1.1 17.3,-2.8 34.2,-8.2 50,-16.1 15.7,-7.9 30.3,-18.5 41.3,-32.1 11.00004,-13.6 18.60004,-30.4 21.20004,-47.7 2.6,-17.3 0.4,-35.2 -4.9,-52.1 -5.3,-16.8 -13.6,-32.5 -24.40004,-46.4 -10.7,-13.9 -23.9,-26 -38.9,-35.1 -15,-9.1 -31.9,-15.2 -49.2,-17.8 -17.3,-2.6 -35.2,-1.6 -52.3,2.5 -17.1,4.1 -33.4,11.3 -48.1,20.9 -14.8,9.6 -28,21.5 -38.8,35.4 -10.8,13.8 -19.3,29.6 -24,46.6 -4.7,17 -5.7,34.9 -1.8,52 z"
     id="path11"
     inkscape:connector-curvature="0"
     style="fill:none;stroke:#000000;stroke-linecap:round;stroke-linejoin:round" /><path
     loopid="BCK_12A"
     class="st0"
     d="m 597.66356,798.5 c 14,-10.1 26.4,-22.7 35.3,-37.5 9,-14.8 14.6,-31.7 15.5,-48.9 0.9,-17.2 -2.8,-34.6 -9.6,-50.5 -6.8,-15.9 -16.7,-30.4 -28.6,-42.9 -12,-12.5 -26,-22.9 -41.6,-30.5 -15.5,-7.6 -32.5,-12.4 -49.7,-13.7 -17.2,-1.3 -34.7,1 -51.1,6.4 -16.4,5.4 -31.7,14 -45.1,24.9 -13.4,10.9 -25,24 -33.9,38.9 -8.9,14.8 -15.3,31.3 -17.4,48.5 -2.1,17.1 0,34.8 6.2,50.9 6.2,16.1 16.5,30.5 29.1,42.4 12.5,12 27.2,21.5 43.1,28.3 15.9,6.8 32.9,11 50.2,12.1 17.2,1.1 34.7,-0.9 51.3,-5.7 16.5,-4.9 32.3,-12.5 46.3,-22.7 z"
     id="path13"
     inkscape:connector-curvature="0"
     style="fill:none;stroke:#000000;stroke-linecap:round;stroke-linejoin:round" /><path
     loopid="BCK_1A"
     class="st0"
     d="m 737.56356,734.8 c 17.8,-4.3 35,-11.3 50.4,-21.3 15.4,-10 29.1,-23.1 38.1,-38.9 9,-15.8 13.2,-34.3 13.3,-52.7 0.1,-18.4 -4.1,-36.5 -10.9,-53.6 -6.9,-17 -16.4,-32.9 -28.4,-46.8 -12,-13.8 -26.4,-25.6 -42.5,-34.4 -16.1,-8.8 -33.9,-14.6 -52.1,-16.6 -18.2,-2.1 -36.8,-0.4 -54.4,4.7 -17.6,5.1 -34.2,13.7 -48.5,25.2 -14.3,11.4 -26.4,25.7 -35.2,41.8 -8.9,16.1 -14.5,33.9 -16.4,52.1 -1.9,18.2 0.1,36.9 5.9,54.2 5.8,17.3 15.6,33.4 28.2,46.7 12.6,13.3 28,23.9 44.8,31.3 16.8,7.4 34.9,11.6 53.2,12.9 18.3,1.3 36.7,-0.3 54.5,-4.6 z"
     id="path15"
     inkscape:connector-curvature="0"
     style="fill:none;stroke:#000000;stroke-linecap:round;stroke-linejoin:round" /><path
     loopid="BCK_12B"
     class="st0"
     d="m 469.16356,380.1 c -17,5 -33.1,13.3 -46.9,24.5 -13.8,11.2 -25.2,25.2 -33.4,41 -8.2,15.7 -13.1,33.1 -14.9,50.8 -1.8,17.7 -0.3,35.7 4.6,52.7 5,17 13.4,33.1 25,46.5 11.6,13.4 26.2,24.2 42.3,31.7 16.1,7.5 33.6,11.8 51.3,13.1 17.7,1.3 35.6,-0.2 52.7,-4.9 17.1,-4.6 33.5,-12.3 47.5,-23.2 14,-10.8 25.7,-24.7 33.9,-40.5 8.2,-15.7 12.8,-33.3 14.1,-51 1.3,-17.7 -0.8,-35.6 -6.1,-52.6 -5.3,-16.9 -13.8,-32.9 -25.1,-46.5 -11.4,-13.6 -25.7,-24.8 -41.5,-32.7 -15.8,-7.9 -33.3,-12.8 -51,-14.3 -17.5,-1.4 -35.5,0.4 -52.5,5.4 z"
     id="path17"
     inkscape:connector-curvature="0"
     style="fill:none;stroke:#000000;stroke-linecap:round;stroke-linejoin:round" /><path
     loopid="BCK_2A"
     class="st0"
     d="m 819.26356,423 c 2,-17.4 0.8,-35.2 -4.2,-52 -5,-16.7 -13.9,-32.4 -25.6,-45.4 -11.7,-13 -26.1,-23.5 -41.9,-31.2 -15.8,-7.7 -32.8,-12.6 -50.2,-14.5 -17.4,-1.9 -35.2,-0.7 -52.1,3.7 -16.9,4.4 -33.1,12 -47,22.6 -14,10.5 -25.8,24 -34.3,39.3 -8.5,15.3 -13.6,32.5 -14.9,50 -1.3,17.4 1.1,35.2 6.8,51.7 5.7,16.6 14.6,32 26,45.3 11.4,13.3 25.3,24.4 40.8,32.7 15.4,8.3 32.4,13.7 49.8,15.9 17.4,2.1 35.2,0.9 52,-3.8 16.8,-4.7 32.7,-12.9 46.3,-24 13.6,-11.1 24.8,-24.9 33,-40.4 8.3,-15.5 13.5,-32.5 15.5,-49.9 z"
     id="path19"
     inkscape:connector-curvature="0"
     style="fill:none;stroke:#000000;stroke-linecap:round;stroke-linejoin:round" /><path
     loopid="BCK_2B"
     class="st0"
     d="m 945.06356,390.2 c 11.3,-11.7 20.1,-25.9 25.5,-41.2 5.4,-15.4 7.6,-31.9 5.8,-48.1 -1.7,-16.2 -7.2,-31.9 -15.5,-45.9 -8.3,-14 -19.4,-26.2 -32.1,-36.5 -12.7,-10.2 -27,-18.4 -42.3,-24 -15.3,-5.5 -31.6,-8.4 -47.9,-8.1 -16.3,0.3 -32.5,3.6 -47.5,9.9 -15,6.3 -28.7,15.7 -40.1,27.3 -11.4,11.6 -20.5,25.6 -26.1,40.9 -5.6,15.3 -7.8,31.9 -6.1,48.1 1.7,16.2 7.3,31.9 15.7,45.9 8.4,14 19.6,26.2 32.4,36.2 12.8,10 27.3,17.9 42.6,23.4 15.4,5.5 31.6,8.5 47.9,8.5 16.3,0 32.6,-3.1 47.7,-9.3 14.9,-6 28.7,-15.4 40,-27.1 z"
     id="path21"
     inkscape:connector-curvature="0"
     style="fill:none;stroke:#000000;stroke-linecap:round;stroke-linejoin:round" /><path
     loopid="BCK_3B"
     class="st0"
     d="m 549.96356,242.9 c 3.3,15.9 10,31.2 19.4,44.4 9.5,13.2 21.8,24.4 35.7,32.8 13.9,8.4 29.5,14 45.6,16.7 16.1,2.7 32.6,2.5 48.6,-0.3 16,-2.8 31.6,-8.3 45.8,-16.4 14.2,-8 27,-18.6 36.9,-31.6 9.9,-12.9 16.7,-28.3 19.4,-44.3 2.7,-16 1.2,-32.6 -3.3,-48.3 -4.5,-15.7 -12,-30.4 -21.7,-43.4 -9.7,-13.1 -21.6,-24.5 -35.1,-33.7 -13.5,-9.1 -28.6,-15.9 -44.5,-19.6 -15.9,-3.7 -32.5,-4.3 -48.5,-1.5 -16,2.8 -31.5,8.9 -45.1,17.8 -13.6,8.9 -25.4,20.6 -34.5,34.1 -9.1,13.5 -15.5,28.8 -18.8,44.7 -3.1,16.1 -3.1,32.7 0.1,48.6 z"
     id="path23"
     inkscape:connector-curvature="0"
     style="fill:none;stroke:#000000;stroke-linecap:round;stroke-linejoin:round" /><path
     loopid="BCK_4B"
     class="st0"
     d="m 426.16356,219.1 c -12.9,10.6 -23.9,23.4 -31.9,38 -8.1,14.6 -13.2,30.8 -14.5,47.4 -1.3,16.6 1.3,33.4 7.1,49 5.8,15.6 14.7,30 25.9,42.3 11.2,12.3 24.7,22.5 39.6,29.9 14.9,7.4 31.3,11.9 47.9,13 16.6,1.2 33.4,-0.9 49.2,-6.1 15.8,-5.2 30.6,-13.5 43.4,-24.1 12.8,-10.6 23.7,-23.6 31.7,-38.2 8.1,-14.6 13.3,-30.8 14.7,-47.3 1.4,-16.5 -0.9,-33.4 -6.7,-49 -5.7,-15.6 -14.8,-29.9 -26.1,-42.1 -11.3,-12.2 -24.8,-22.4 -39.8,-29.7 -14.9,-7.3 -31.3,-11.9 -47.8,-13.1 -16.6,-1.2 -33.4,0.9 -49.2,6.1 -15.8,5.1 -30.6,13.4 -43.5,23.9 z"
     id="path25"
     inkscape:connector-curvature="0"
     style="fill:none;stroke:#000000;stroke-linecap:round;stroke-linejoin:round" /><path
     loopid="BCK_3A"
     class="st0"
     d="m 388.76356,100.7 c -3.8,15.9 -4.8,32.5 -2.4,48.7 2.4,16.2 8.2,31.8 17.1,45.6 8.9,13.8 20.8,25.4 34.4,34.4 13.6,9 29.1,15.2 45.1,18.4 16,3.2 32.6,3.5 48.7,0.8 16.1,-2.7 31.7,-8.4 45.7,-16.9 14,-8.5 26.3,-19.8 35.7,-33.1 9.4,-13.4 15.9,-28.8 18.9,-44.8 3,-16 2.7,-32.7 -0.6,-48.7 -3.3,-16 -9.6,-31.4 -18.3,-45.2 -8.7,-13.8 -19.9,-26.1 -33.1,-35.8 -13.1,-9.8 -28.1,-17.1 -44,-20.9 -15.9,-3.8 -32.6,-4.2 -48.6,-1 -16,3.2 -31.3,9.9 -44.7,19.2 -13.4,9.3 -25,21.2 -34.2,34.7 -9.2,13.6 -15.9,28.7 -19.7,44.6 z"
     id="path27"
     inkscape:connector-curvature="0"
     style="fill:none;stroke:#000000;stroke-linecap:round;stroke-linejoin:round" /><path
     loopid="BCK_10B"
     class="st0"
     d="m 550.56356,954.8 c -3.8,16.4 -3.9,33.7 -0.5,50.2 3.4,16.5 10.4,32.3 20.2,46.1 9.8,13.8 22.4,25.5 36.8,34.4 14.4,8.9 30.5,14.9 47.2,17.6 16.7,2.7 33.8,2.3 50.3,-1.4 16.5,-3.6 32.3,-10.3 46.3,-19.7 14,-9.4 26.3,-21.4 36.2,-35 9.9,-13.6 17.7,-28.8 22.9,-44.9 5.2,-16.1 7.9,-33.2 6.1,-49.9 -1.8,-16.8 -8,-33.3 -18.2,-46.5 -10.3,-13.2 -24.6,-23.2 -40,-30.4 -15.4,-7.2 -31.8,-11.7 -48.5,-13.9 -16.7,-2.2 -33.8,-2.2 -50.5,0.4 -16.7,2.6 -33,7.7 -47.9,15.7 -14.9,8 -28.3,18.9 -38.7,32.2 -10.5,13 -17.9,28.6 -21.7,45.1 z"
     id="path29"
     inkscape:connector-curvature="0"
     style="fill:none;stroke:#000000;stroke-linecap:round;stroke-linejoin:round" /><path
     loopid="BCK_4A"
     class="st0"
     d="m 425.46356,312.1 c 12.8,-9.9 23.7,-22.5 31.5,-36.7 7.8,-14.2 12.6,-30.1 14.1,-46.3 1.4,-16.2 -0.5,-32.6 -5.5,-48.1 -5,-15.5 -13.1,-29.9 -23.6,-42.3 -10.5,-12.4 -23.4,-22.7 -37.9,-30.1 -14.5,-7.3 -30.5,-11.6 -46.7,-12.5 -16.2,-0.9 -32.6,1.5 -47.9,6.8 -15.3,5.3 -29.6,13.6 -42.1,24 -12.5,10.4 -23.1,23 -31.4,37 -8.3,14 -14.3,29.4 -16.9,45.4 -2.6,16 -1.8,32.7 3,48.2 4.8,15.4 13.7,29.6 25,41.3 11.3,11.7 25,20.9 39.9,27.5 14.8,6.6 30.8,10.7 47,12 16.2,1.3 32.6,-0.2 48.2,-4.6 15.6,-4.3 30.5,-11.6 43.3,-21.6 z"
     id="path31"
     inkscape:connector-curvature="0"
     style="fill:none;stroke:#000000;stroke-linecap:round;stroke-linejoin:round" /><path
     loopid="BCK_5A"
     class="st0"
     d="m 248.66356,398.1 c 13.1,-9.5 24.7,-21.2 33.6,-34.7 8.9,-13.5 15.2,-28.9 17.8,-44.8 2.6,-16 1.5,-32.6 -3.2,-48.1 -4.7,-15.5 -13,-29.8 -23.6,-42.1 -10.7,-12.2 -23.7,-22.3 -38.3,-29.5 -14.6,-7.2 -30.5,-11.4 -46.7,-12.4 -16.2,-1 -32.5,1.3 -47.9,6.2 -15.5,4.9 -30,12.4 -43.1,22.1 -13,9.7 -24.5,21.5 -33.3,35 -8.9,13.6 -15.2,28.9 -17.7,44.9 -2.6,16 -1.4,32.5 3.1,48.1 4.5,15.6 12.4,30.1 23,42.4 10.5,12.3 23.7,22.4 38.3,29.4 14.6,7 30.7,10.9 46.9,11.7 16.2,0.8 32.5,-1.6 47.9,-6.4 15.5,-4.9 30.1,-12.3 43.2,-21.8 z"
     id="path33"
     inkscape:connector-curvature="0"
     style="fill:none;stroke:#000000;stroke-linecap:round;stroke-linejoin:round" /><path
     loopid="BCK_5B"
     class="st0"
     d="m 467.96356,382.1 c -3.2,-17.1 -10.1,-33.6 -20.1,-47.9 -10,-14.3 -23,-26.4 -37.9,-35.5 -14.9,-9.1 -31.6,-15.1 -48.8,-17.9 -17.2,-2.8 -34.9,-2.4 -52,0.9 -17.1,3.4 -33.6,9.7 -48.5,18.9 -14.9,9.1 -28.1,21.1 -38.1,35.3 -10.1,14.2 -17,30.7 -20.1,47.9 -3.1,17.1 -2.5,34.9 1.2,52 3.7,17.1 10.4,33.5 19.9,48 9.6,14.6 22,27.3 36.6,36.9 14.5,9.6 31.1,16.1 48.3,19.1 17.2,3 34.9,2.4 52,-1.4 17,-3.8 33.3,-10.9 47.8,-20.6 14.5,-9.7 27.2,-22 37.3,-36.3 10,-14.3 17.3,-30.5 21.2,-47.5 3.8,-17 4.4,-34.8 1.2,-51.9 z"
     id="path35"
     inkscape:connector-curvature="0"
     style="fill:none;stroke:#000000;stroke-linecap:round;stroke-linejoin:round" /><path
     loopid="BCK_6B"
     class="st0"
     d="m 187.66356,582.6 c -5.2,17.7 -7.4,36.3 -4.9,54.5 2.5,18.1 9.7,35.7 20.9,50.2 11.1,14.5 26.2,25.9 42.6,34.3 16.4,8.4 34.1,13.9 52.3,16.5 18.2,2.7 36.8,2.6 54.8,-0.6 18,-3.2 35.7,-9.6 51.4,-19 15.7,-9.4 29.6,-21.8 40.3,-37 10.7,-15.2 18.4,-33.2 21.3,-50.3 2.9,-17.1 1.1,-33.4 -2.5,-50.2 -3.7,-16.7 -9.2,-33.9 -18.8,-49.2 -9.6,-15.2 -23.3,-28.5 -38.8,-38.6 -15.5,-10.2 -32.7,-17.2 -50.7,-20.7 -18,-3.4 -36.8,-3.2 -54.7,0.6 -17.9,3.8 -35.1,11.3 -50.3,21.7 -15.2,10.3 -28.4,23.5 -39,38.5 -10.6,14.9 -18.7,31.6 -23.9,49.3 z"
     id="path37"
     inkscape:connector-curvature="0"
     style="fill:none;stroke:#000000;stroke-linecap:round;stroke-linejoin:round" /><path
     loopid="BCK_6A"
     class="st0"
     d="m 265.66356,580.6 c 10.1,-15.3 17.2,-32.5 21.1,-50.3 3.9,-17.8 4.7,-36.4 2.2,-54.5 -2.5,-18.1 -8.4,-35.8 -17.7,-51.6 -9.3,-15.8 -22,-29.5 -37,-40 -15,-10.5 -32.3,-17.6 -50.2,-21.1 -18,-3.5 -36.6,-3.3 -54.5,0.6 -17.9,3.9 -35,11.5 -49.6,22.5 -14.6,10.9 -26.8,25.1 -35.9,41 -9.1,15.9 -15.2,33.4 -18.8,51.3 -3.6,17.9 -4.8,36.3 -3.4,54.6 1.4,18.3 5.4,36.5 13.6,52.8 8.2,16.3 20.6,30.7 35.8,40.7 15.2,10 33.2,15.5 51.5,17.8 18.2,2.2 36.7,1.1 54.5,-3.1 17.8,-4.2 35,-11.4 50.1,-21.7 15.1,-10.5 28.2,-23.8 38.3,-39 z"
     id="path39"
     inkscape:connector-curvature="0"
     style="fill:none;stroke:#000000;stroke-linecap:round;stroke-linejoin:round" /><path
     loopid="BCK_7A"
     class="st0"
     d="m 38.76356,791.3 c 13.6,11.1 29.3,19.2 45.9,24.8 16.6,5.6 33.9,8.8 51.4,9.4 17.5,0.6 35,-1.3 51.9,-5.8 16.9,-4.5 33.1,-11.7 47.4,-21.7 14.3,-10 26.8,-23 35.2,-38.2 8.4,-15.2 12.8,-32.8 12.6,-50.3 -0.2,-17.4 -4.8,-34.8 -12.5,-50.4 -7.7,-15.7 -18.5,-29.7 -31.2,-41.7 -12.7,-12 -27.3,-22 -43.2,-29.3 -15.9,-7.3 -33.1,-11.9 -50.5,-13 -17.4,-1.1 -35.1,1.2 -51.6,6.9 -16.5,5.7 -31.7,14.9 -44.9,26.4 -13.1,11.5 -24,25.5 -32.4,40.8 -8.3999997,15.4 -14.1999997,32.1 -16.09999972,49.5 -1.99999998,17.4 -0.1,35.4 6.50000002,51.4 6.4999997,16.1 17.8999997,30.1 31.4999997,41.2 z"
     id="path41"
     inkscape:connector-curvature="0"
     style="fill:none;stroke:#000000;stroke-linecap:round;stroke-linejoin:round" /><path
     loopid="BCK_7B"
     class="st0"
     d="m 282.06356,685.7 c -16.8,4.8 -32.9,11.8 -47.8,20.9 -14.9,9.1 -28.6,20.4 -38.9,34.5 -10.3,14.1 -17.2,31.1 -17.7,48.3 -0.6,17.2 5.1,34.6 13.9,49.8 8.8,15.2 20.7,28.2 34.1,39.3 13.4,11.1 28.4,20.4 44.4,27.3 16,6.9 33,11.6 50.4,13.4 17.4,1.8 35,0.8 52,-3.3 16.9,-4.2 33.1,-11.6 47.2,-21.9 14.1,-10.3 26.1,-23.5 34.7,-38.6 8.7,-15.1 14,-32.2 15.2,-49.6 1.2,-17.4 -1.9,-35.1 -8.7,-51.1 -6.9,-16 -17.5,-30.4 -30.6,-41.9 -13.1,-11.5 -28.6,-20.3 -45,-26 -16.5,-5.7 -34,-8.4 -51.4,-8.5 -17.6,0 -35.1,2.6 -51.8,7.4 z"
     id="path43"
     inkscape:connector-curvature="0"
     style="fill:none;stroke:#000000;stroke-linecap:round;stroke-linejoin:round" /><path
     loopid="BCK_8B"
     class="st0"
     d="m 291.96356,914.8 c 2.6,-17 0.7,-34.6 -5,-50.9 -5.7,-16.3 -15.3,-31 -27.2,-43.4 -11.9,-12.4 -26.1,-22.6 -41.3,-30.6 -15.2,-8.1 -31.5,-14 -48.2,-18.1 -16.7,-4 -34,-6.1 -51.2,-5.8 -17.2,0.3 -34.4,2.9 -50.6,9.2 -16.1,6.3 -31.2,16.3 -41,30.1 -9.8,13.8 -14.4,31.4 -14.6,48.7 -0.2,17.3 3.9,34.3 10.4,50.3 6.5,16 15.3,30.9 26.1,44.4 10.8,13.4 23.5,25.4 37.7,35.1 14.2,9.7 29.9,17.3 46.5,22 16.6,4.7 34,6.5 51.1,4.9 17.1,-1.6 34,-6.7 49.1,-14.9 15.1,-8.3 28.5,-19.8 38.6,-33.7 10.1,-13.9 17.1,-30.3 19.6,-47.3 z"
     id="path45"
     inkscape:connector-curvature="0"
     style="fill:none;stroke:#000000;stroke-linecap:round;stroke-linejoin:round" /><path
     loopid="BCK_8A"
     class="st0"
     d="m 380.36356,865.9 c -16.2,-4.7 -33.1,-6.7 -49.9,-6.4 -16.8,0.4 -33.5,3.1 -49.6,8.3 -16.1,5.2 -31.4,12.8 -44.2,23.8 -12.7,11 -22.8,25.4 -27.9,41.2 -5.2,15.9 -5.5,33.2 -2.8,49.9 2.7,16.7 8.3,32.7 16.4,47.5 8.1,14.8 18.6,28.2 31.1,39.5 12.5,11.3 27,20.3 42.7,26.3 15.7,6 32.6,9 49.4,8.8 16.8,-0.3 33.6,-3.8 49.1,-10.4 15.5,-6.6 29.7,-16.2 41.4,-28.2 11.8,-12 21.2,-26.4 27.3,-42.1 6.1,-15.7 8.8,-32.7 7.9,-49.5 -0.9,-16.8 -5.6,-33.4 -13.5,-48.2 -8,-14.8 -19.2,-27.8 -32.6,-38.1 -13.2,-10.2 -28.6,-17.7 -44.8,-22.4 z"
     id="path47"
     inkscape:connector-curvature="0"
     style="fill:none;stroke:#000000;stroke-linecap:round;stroke-linejoin:round" /><path
     loopid="BCK_1B"
     class="st0"
     d="m 989.76356,579.2 c 7.2,-16.9 10.30004,-35.4 10.90004,-53.8 0.6,-18.4 -1.20004,-36.8 -5.60004,-54.7 -4.4,-17.9 -11.4,-35.2 -21.5,-50.6 -10.1,-15.4 -23.3,-28.8 -38.7,-38.7 -15.4,-9.9 -33.1,-16.4 -51.3,-19.2 -18.2,-2.8 -36.9,-1.9 -54.7,2.6 -17.8,4.5 -34.8,12.5 -49.3,23.8 -14.5,11.3 -26.5,25.8 -35,42.1 -8.5,16.3 -13.4,34.4 -15,52.7 -1.6,18.3 0.2,36.9 5.1,54.6 4.9,17.7 13,34.6 24.1,49.3 11.1,14.7 25.1,27.2 40.9,36.5 15.8,9.3 33.5,15.5 51.6,18.8 18.1,3.3 36.7,3.6 54.9,0.5 18.2,-3.1 36.1,-9.6 50.7,-20.6 14.4,-10.9 25.7,-26.3 32.9,-43.3 z"
     id="path49"
     inkscape:connector-curvature="0"
     style="fill:none;stroke:#000000;stroke-linecap:round;stroke-linejoin:round" /><path
     loopid="BCK_11A"
     class="st0"
     d="m 551.26356,819.9 c 3.3,17.2 10.7,33.6 21.2,47.6 10.5,14 24,25.8 39.2,34.5 15.2,8.7 32.2,14.2 49.6,16.6 17.4,2.4 35.1,1.7 52.3,-1.7 17.2,-3.4 33.9,-9.4 49.4,-17.5 15.5,-8.1 29.9,-18.4 42.6,-30.6 12.7,-12.2 23.6,-26.2 30.5,-42.4 6.9,-16.2 9.6,-34.4 6.1,-51.3 -3.6,-16.9 -13.5,-32.4 -25.8,-45 -12.3,-12.7 -26.9,-22.6 -42.6,-30.4 -15.7,-7.9 -32.3,-13.7 -49.5,-17.3 -17.2,-3.6 -34.8,-4.9 -52.3,-3.4 -17.5,1.4 -34.8,5.6 -50.7,12.8 -16,7.2 -30.6,17.6 -42.4,30.6 -11.8,13 -20.7,28.6 -25.4,45.5 -4.8,16.8 -5.5,34.8 -2.2,52 z"
     id="path51"
     inkscape:connector-curvature="0"
     style="fill:none;stroke:#000000;stroke-linecap:round;stroke-linejoin:round" /></svg>