<?xml version="1.0" encoding="UTF-8" standalone="no"?>
<!-- Generator: Adobe Illustrator 19.1.0, SVG Export Plug-In . SVG Version: 6.00 Build 0)  -->

<svg
   xmlns:dc="http://purl.org/dc/elements/1.1/"
   xmlns:cc="http://creativecommons.org/ns#"
   xmlns:rdf="http://www.w3.org/1999/02/22-rdf-syntax-ns#"
   xmlns:svg="http://www.w3.org/2000/svg"
   xmlns="http://www.w3.org/2000/svg"
   xmlns:sodipodi="http://sodipodi.sourceforge.net/DTD/sodipodi-0.dtd"
   xmlns:inkscape="http://www.inkscape.org/namespaces/inkscape"
   version="1.1"
   id="Coil::Sidewings::SIDEWING_x5F_LOOPS"
   x="0px"
   y="0px"
   viewBox="0 0 395.06737 808.47176"
   xml:space="preserve"
   inkscape:version="0.91 r13725"
   sodipodi:docname="wng_r_loops.svg"
   width="395.06735"
   height="808.47174"><metadata
     id="metadata29"><rdf:RDF><cc:Work
         rdf:about=""><dc:format>image/svg+xml</dc:format><dc:type
           rdf:resource="http://purl.org/dc/dcmitype/StillImage" /><dc:title></dc:title></cc:Work></rdf:RDF></metadata><defs
     id="defs27" /><sodipodi:namedview
     pagecolor="#ffffff"
     bordercolor="#666666"
     borderopacity="1"
     objecttolerance="10"
     gridtolerance="10"
     guidetolerance="10"
     inkscape:pageopacity="0"
     inkscape:pageshadow="2"
     inkscape:window-width="1248"
     inkscape:window-height="1388"
     id="namedview25"
     showgrid="false"
     fit-margin-top="0"
     fit-margin-left="0"
     fit-margin-right="0"
     fit-margin-bottom="0"
     inkscape:zoom="0.88645178"
     inkscape:cx="266.77319"
     inkscape:cy="539.53157"
     inkscape:window-x="65"
     inkscape:window-y="24"
     inkscape:window-maximized="0"
     inkscape:current-layer="Coil::Sidewings::SIDEWING_x5F_LOOPS" /><style
     type="text/css"
     id="style3">
	.st0{fill:none;stroke:#000000;stroke-linecap:round;stroke-linejoin:round;}
</style><path
     class="st0"
     d="m 40.259219,608.70341 c -12.3,5.4 -22.9,15.2 -29.5,26.9 -6.5000005,11.8 -9.0000005,25.6 -9.90000049,39.3 -0.9,13.7 -0.1,27.3 2.29999999,40.6 2.4,13.4 6.5,26.5 12.7000005,38.6 6.2,12.1 14.6,23.2 24.9,32 10.4,8.8 22.7,15.2 35.9,18.7 13.1,3.5 27.100001,4.1 40.500001,1.8 13.4,-2.3 26.3,-7.4 37.8,-14.6 11.5,-7.2 21.7,-16.6 30,-27.4 8.3,-10.8 14.6,-23.1 18.3,-36.2 3.7,-13.1 4.8,-27.1 2.3,-40.4 -2.5,-13.3 -8.6,-26 -16.9,-36.7 -8.4,-10.7 -19.1,-19.5 -30.8,-26.5 -11.7,-7 -24.4,-12.2 -37.5,-15.9 -13.1,-3.7 -26.500001,-5.9 -40.200001,-6.4 -13.5,-0.4 -27.5,0.8 -39.9,6.2 z"
     id="path5"
     inkscape:connector-curvature="0"
     style="fill:none;stroke:#000000;stroke-linecap:round;stroke-linejoin:round"
     loopid="WNG_R1B" /><path
     class="st0"
     d="m 56.159219,369.10341 c -11,7.2 -20.5,16.7 -26.7,28.2 -6.2,11.5 -9.1,24.8 -8.3,37.8 0.8,13 5.4,25.7 12.4,36.8 7,11.1 16.3,20.5 26.8,28.4 10.4,7.9 21.9,14.4 34,19.3 12.100001,5 24.800001,8.5 37.800001,10.1 13,1.7 26.2,1.5 39.1,-1 12.8,-2.5 25.3,-7.3 36.2,-14.6 10.9,-7.3 20.2,-17.1 26.2,-28.7 6,-11.6 8.5,-25 7.5,-38 -1,-13 -5.7,-25.6 -12.4,-36.9 -6.7,-11.2 -15.6,-21.1 -25.7,-29.4 -10.1,-8.3 -21.5,-15 -33.6,-19.9 -12.1,-4.9 -25,-8.1 -38,-9.3 -13,-1.2 -26.2,-0.4 -39.000001,2.3 -12.9,3 -25.3,7.7 -36.3,14.9 z"
     id="path7"
     inkscape:connector-curvature="0"
     style="fill:none;stroke:#000000;stroke-linecap:round;stroke-linejoin:round"
     loopid="WNG_R3B" /><path
     class="st0"
     d="m 190.95922,570.00341 c -11.8,6.4 -22.5,15 -29.9,26 -7.4,11 -11.6,24.3 -12.1,37.6 -0.5,13.3 2.6,26.6 7.9,38.9 5.3,12.3 12.9,23.5 22.1,33.1 9.2,9.6 20.2,17.6 32.2,23.3 12.1,5.7 25.2,9.1 38.5,9.8 13.3,0.7 26.7,-1.1 39.4,-5.2 12.7,-4.1 24.7,-10.3 35.5,-18.2 10.8,-7.9 20.3,-17.4 28.2,-28.2 7.9,-10.8 14.1,-22.9 16.9,-36 2.8,-13 2.3,-27 -2.4,-39.3 -4.7,-12.3 -13.6,-23 -24.1,-31.3 -10.5,-8.3 -22.7,-14.1 -35.4,-18.2 -12.7,-4.1 -25.9,-6.5 -39.2,-7.3 -13.3,-0.8 -26.7,-0.2 -39.8,2.2 -13.2,2.4 -26,6.4 -37.8,12.8 z"
     id="path9"
     inkscape:connector-curvature="0"
     style="fill:none;stroke:#000000;stroke-linecap:round;stroke-linejoin:round"
     loopid="WNG_R1A" /><path
     class="st0"
     d="m 190.65922,572.30341 c 11.8,10.7 25.6,19.1 40.5,24.8 14.9,5.7 30.8,8.6 46.7,8.6 15.9,-0.1 31.8,-3.3 46.5,-9.2 14.7,-6 28.3,-14.7 39.3,-26.5 11,-11.7 19.5,-26.4 21.2,-41.9 1.7,-15.5 -3.2,-31.9 -12.3,-44.9 -9.1,-13 -22.4,-22.7 -36.6,-30 -14.2,-7.3 -29.5,-12.1 -45.2,-14.8 -15.7,-2.6 -31.8,-3 -47.5,-1 -15.8,2 -31.2,6.4 -45.3,14.1 -14.1,7.7 -26.9,18.8 -33.5,32.9 -6.6,14.1 -7,31.3 -2.1,46.4 4.9,15.2 14.9,28.3 26.2,39.3"
     id="path11"
     inkscape:connector-curvature="0"
     style="fill:none;stroke:#000000;stroke-linecap:round;stroke-linejoin:round"
     loopid="WNG_R2B" /><path
     class="st0"
     d="m 203.85922,173.00341 c -11.4,8 -21.2,18.4 -28.2,30.5 -6.9,12.1 -10.9,25.9 -11.3,39.9 -0.4,13.9 2.8,28 8.9,40.5 6.1,12.5 15.2,23.5 25.9,32.5 10.7,9 23,16 36,21 13,5 26.8,8.1 40.7,9.2 13.9,1.1 28,0.1 41.6,-3.1 13.6,-3.2 26.7,-8.8 38.1,-16.8 11.4,-8 21.3,-18.4 28.1,-30.6 6.8,-12.2 10.7,-26 10.9,-40 0.2,-13.9 -3.3,-27.9 -9.5,-40.4 -6.2,-12.5 -15.1,-23.6 -25.6,-32.8 -10.5,-9.2 -22.7,-16.4 -35.6,-21.6 -13,-5.2 -26.7,-8.3 -40.6,-9.3 -13.9,-1 -28,0.2 -41.5,3.7 -13.6,3.5 -26.5,9.3 -37.9,17.3 z"
     id="path13"
     inkscape:connector-curvature="0"
     style="fill:none;stroke:#000000;stroke-linecap:round;stroke-linejoin:round"
     loopid="WNG_R4B" /><path
     class="st0"
     d="m 354.25922,328.60341 c -10.5,-8.2 -22.4,-14.7 -34.9,-19.3 -12.5,-4.6 -25.7,-7.3 -39.1,-8.2 -13.3,-0.9 -26.8,0.1 -39.8,3.2 -13,3 -25.5,8.1 -36.9,15.2 -11.3,7.1 -21.4,16.2 -28.8,27.4 -7.4,11.2 -12.2,24.3 -12.4,37.5 -0.2,13.2 4.1,26.5 11,37.9 7,11.4 16.6,21 27.5,28.8 10.8,7.9 22.8,14.1 35.3,18.6 12.6,4.5 25.7,7.4 39,8.4 13.3,1.1 26.8,0.3 39.8,-2.3 13.1,-2.7 25.8,-7.3 37.3,-14.2 11.5,-6.9 21.8,-16 28.9,-27.2 7.1,-11.2 11,-24.7 10.7,-38 -0.2,-13.3 -4.6,-26.4 -11.3,-38 -6.6,-11.6 -15.8,-21.6 -26.3,-29.8 z"
     id="path15"
     inkscape:connector-curvature="0"
     style="fill:none;stroke:#000000;stroke-linecap:round;stroke-linejoin:round"
     loopid="WNG_R3A" /><path
     class="st0"
     d="m 233.95922,193.30341 c 4.4,-13.2 5.4,-27.7 3.1,-41.4 -2.3,-13.8 -8,-27 -16,-38.4 -8,-11.5 -18.3,-21.3 -29.9,-29.1 -11.5,-8 -24.4,-13.9 -37.8,-17.8 -13.4,-3.9 -27.4,-5.8 -41.4,-5.7 -14.000001,0.1 -28.000001,2.4 -41.100001,7.5 -13.1,5.1 -25.2,13.1 -34.2,23.6 -9,10.6 -15,23.7 -18.4,37.3 -3.4,13.6 -4.3,27.7 -2.8,41.7 1.5,14 5.3,27.8 12.2,39.9 6.9,12.1 16.8,22.5 28.4,30.3 11.6,7.8 24.8,13 38.5,16.2 13.700001,3.1 27.700001,4.2 41.700001,3.3 14,-1 27.8,-3.9 40.8,-9.3 13,-5.4 25,-13 34.9,-22.8 9.8,-9.9 17.6,-22 22,-35.3 z"
     id="path17"
     inkscape:connector-curvature="0"
     style="fill:none;stroke:#000000;stroke-linecap:round;stroke-linejoin:round"
     loopid="WNG_R5A" /><path
     class="st0"
     d="m 201.45922,173.50341 c 10.9,8.6 23.4,15.4 36.6,19.9 13.2,4.5 27.1,6.9 41.1,6.9 14,0 27.9,-2.3 41,-7.1 13.1,-4.8 25.3,-12.1 35.5,-21.6 10.2,-9.5 18.4,-21.2 23.6,-34.1 5.2,-12.9 7.5,-27.1 6.4,-41 -1.1,-13.9 -5.4,-27.5 -12.4,-39.6 -7,-12.1 -16.6,-22.6 -27.7,-31 -11.1,-8.4 -23.7,-14.9 -37,-19.1000003 -13.2,-4.3 -27.2,-6.4 -41.1,-6.3 -14,0.1 -27.9,2.3 -41.1,6.9 -13.2,4.5000003 -25.7,11.4000003 -36.1,20.6000003 -10.5,9.2 -18.9,20.8 -24,33.8 -5.1,12.9 -6.9,27.2 -5.5,41.1 1.5,13.9 6.2,27.3 13.2,39.4 7.1,11.9 16.5,22.5 27.5,31.2 z"
     id="path19"
     inkscape:connector-curvature="0"
     style="fill:none;stroke:#000000;stroke-linecap:round;stroke-linejoin:round"
     loopid="WNG_R5B" /><path
     class="st0"
     d="m 51.159219,239.10341 c -11.4,11.7 -19.4,26.3 -23.7,42.1 -4.3,15.8 -5.1,32.8 -0.6,48.3 4.5,15.5 14.2,29.5 26.7,39.9 12.5,10.4 27.6,17.3 43.3,21.9 15.700001,4.6 32.000001,6.9 48.200001,6.5 16.3,-0.4 32.6,-3.7 47.4,-10.6 14.8,-7 28,-17.8 36.5,-31.5 8.5,-13.7 12.3,-30.5 11.3,-46.7 -1.1,-16.2 -7,-32 -16,-45.6 -9,-13.6 -21.1,-25 -34.9,-33.7 -13.8,-8.7 -29.3,-14.6 -45.3,-17.4 -16.1,-2.8 -32.7,-2.3 -48.500001,1.7 -15.8,4.1 -30.7,11.8 -42.4,23.2"
     id="path21"
     inkscape:connector-curvature="0"
     style="fill:none;stroke:#000000;stroke-linecap:round;stroke-linejoin:round"
     loopid="WNG_R4A" /><path
     class="st0"
     d="m 230.25922,558.20341 c -3.6,-12.4 -10.8,-23.6 -19.7,-33 -8.9,-9.4 -19.5,-17.1 -30.9,-23.2 -11.4,-6.1 -23.6,-10.7 -36.1,-14 -12.5,-3.2 -25.5,-5 -38.4,-5.4 -12.900001,-0.4 -25.800001,0.6 -38.500001,3.7 -12.7,3.1 -25.3,8.3 -34.3,17.3 -9,8.9 -14.4,21.6 -16,34.4 -1.6,12.9 0.6,25.9 4.8,38.2 4.2,12.3 10.3,23.8 18.2,34.1 7.9,10.3 17.4,19.2 28.1,26.6 10.7,7.4 22.4,13.1 34.800001,16.9 12.4,3.8 25.4,5.6 38.3,5.1 12.9,-0.5 25.8,-3.2 37.7,-8.2 11.9,-5 22.9,-12.2 32.1,-21.4 9.1,-9.2 16.3,-20.5 19.9,-32.9 3.5,-12.3 3.6,-25.8 0,-38.2 z"
     id="path23"
     inkscape:connector-curvature="0"
     style="fill:none;stroke:#000000;stroke-linecap:round;stroke-linejoin:round"
     loopid="WNG_R2A" /></svg>